<svg width="1834" height="754" viewBox="0 0 1834 754" fill="none" xmlns="http://www.w3.org/2000/svg">
<path d="M240.793 240.803C247.682 240.803 253.274 235.211 253.274 228.319V204.15C253.274 172.889 278.735 147.423 310.089 147.423C341.442 147.423 366.903 172.889 366.903 204.15V228.319C366.903 235.211 372.495 240.803 379.384 240.803C386.273 240.803 391.865 235.211 391.865 228.319V207.545C391.865 163.899 359.115 125.551 315.482 122.653C268.051 119.557 228.312 157.309 228.312 204.15V228.319C228.312 235.211 233.904 240.803 240.793 240.803Z" fill="#EB5D3B"/>
<path d="M503.297 565.391L475.84 298.23C473.642 276.958 455.77 260.877 434.4 260.877H185.774C164.407 260.877 146.535 277.058 144.336 298.23L137.447 364.746C132.854 409.39 175.292 444.245 218.126 431.16L241.39 424.071C267.852 415.981 297.408 429.364 307.793 458.727C311.385 468.914 310.888 480.098 307.691 490.485L297.408 524.042C283.229 570.385 317.876 617.226 366.305 617.226H456.57C484.428 617.126 506.193 593.057 503.297 565.391Z" fill="#FFB929"/>
<path d="M250.18 452.634L115.679 493.681C96.1099 499.674 94.7134 526.839 113.583 534.83L145.637 548.313C162.609 555.504 176.188 568.985 183.379 586.065L196.859 618.125C204.846 637.001 232.007 635.6 237.997 616.028L279.036 481.498C284.526 463.82 267.952 447.241 250.18 452.634Z" fill="#EB5D3B"/>
<path d="M684.892 365.286V612.972H627.587V411.286H578.086V365.286H684.892Z" fill="#EB5D3B"/>
<path d="M871.271 617.226C851.704 617.226 832.777 614.574 814.49 609.272C796.219 603.956 781.543 597.051 770.463 588.559L789.914 545.384C800.528 553.177 813.151 559.426 827.768 564.146C842.386 568.865 857.003 571.225 871.621 571.225C887.883 571.225 899.909 568.807 907.699 563.971C915.48 559.135 919.375 552.711 919.375 544.685C919.375 538.786 917.075 533.891 912.474 530.002C907.873 526.098 901.969 522.974 894.77 520.621C887.585 518.254 877.859 515.662 865.593 512.843C846.739 508.357 831.299 503.87 819.266 499.384C807.247 494.897 796.932 487.701 788.313 477.796C779.708 467.891 775.414 454.687 775.414 438.176C775.414 423.784 779.301 410.755 787.09 399.08C794.872 387.412 806.599 378.155 822.265 371.316C837.945 364.463 857.105 361.032 879.745 361.032C895.542 361.032 910.989 362.926 926.072 366.713C941.17 370.486 954.383 375.905 965.702 382.969L947.998 426.494C925.126 413.522 902.261 407.033 879.395 407.033C863.358 407.033 851.507 409.626 843.842 414.811C836.191 419.997 832.369 426.843 832.369 435.35C832.369 443.842 836.781 450.149 845.618 454.286C854.47 458.408 867.966 462.472 886.122 466.493C904.991 470.965 920.431 475.437 932.449 479.923C944.461 484.409 954.768 491.489 963.373 501.161C971.992 510.833 976.302 523.928 976.302 540.432C976.302 554.59 972.349 567.511 964.45 579.178C956.545 590.853 944.693 600.117 928.897 606.971C913.115 613.802 893.904 617.226 871.271 617.226Z" fill="#EB5D3B"/>
<path d="M1215.73 365.286V612.972H1158.42V511.415H1045.97V612.972H988.661V365.286H1045.97V462.939H1158.42V365.286H1215.73Z" fill="#EB5D3B"/>
<path d="M1367.44 617.226C1341.73 617.226 1318.56 611.683 1297.93 600.591C1277.29 589.506 1261.14 574.226 1249.48 554.765C1237.81 535.304 1231.98 513.426 1231.98 489.129C1231.98 464.832 1237.81 442.954 1249.48 423.493C1261.14 404.032 1277.29 388.759 1297.93 377.667C1318.56 366.582 1341.73 361.032 1367.44 361.032C1393.13 361.032 1416.24 366.582 1436.74 377.667C1457.25 388.759 1473.41 404.032 1485.19 423.493C1496.99 442.954 1502.89 464.832 1502.89 489.129C1502.89 513.426 1496.99 535.304 1485.19 554.765C1473.41 574.226 1457.25 589.506 1436.74 600.591C1416.24 611.683 1393.13 617.226 1367.44 617.226ZM1367.44 568.399C1382.05 568.399 1395.25 565.042 1407.04 558.319C1418.82 551.582 1428.07 542.202 1434.79 530.177C1441.52 518.138 1444.89 504.453 1444.89 489.129C1444.89 473.791 1441.52 460.106 1434.79 448.081C1428.07 436.064 1418.82 426.69 1407.04 419.968C1395.25 413.231 1382.05 409.859 1367.44 409.859C1352.82 409.859 1339.61 413.231 1327.81 419.968C1316.02 426.69 1306.77 436.064 1300.06 448.081C1293.34 460.106 1289.98 473.791 1289.98 489.129C1289.98 504.453 1293.34 518.138 1300.06 530.177C1306.77 542.202 1316.02 551.582 1327.81 558.319C1339.61 565.042 1352.82 568.399 1367.44 568.399Z" fill="#EB5D3B"/>
<path d="M1626.28 365.286C1648.21 365.286 1667.26 368.949 1683.41 376.269C1699.56 383.574 1711.99 393.945 1720.71 407.382C1729.45 420.827 1733.81 436.748 1733.81 455.16C1733.81 473.324 1729.45 489.187 1720.71 502.763C1711.99 516.324 1699.56 526.703 1683.41 533.906C1667.26 541.094 1648.21 544.685 1626.28 544.685H1576.43V612.972H1519.12V365.286H1626.28ZM1623.1 497.985C1640.32 497.985 1653.4 494.271 1662.36 486.827C1671.33 479.391 1675.81 468.838 1675.81 455.16C1675.81 441.235 1671.33 430.565 1662.36 423.143C1653.4 415.707 1640.32 411.985 1623.1 411.985H1576.43V497.985H1623.1Z" fill="#EB5D3B"/>
</svg>
