<svg width="326" height="130" viewBox="0 0 326 130" fill="none" xmlns="http://www.w3.org/2000/svg">
<g clip-path="url(#clip0_427_84)">
<path d="M76.1455 23.4813C82.6496 23.4813 87.9222 18.2248 87.9222 11.7406C87.9222 5.25646 82.6496 0 76.1455 0C69.6413 0 64.3687 5.25646 64.3687 11.7406C64.3687 18.2248 69.6413 23.4813 76.1455 23.4813Z" fill="#27B34B"/>
<path d="M43.4151 130C52.0887 130 59.1201 122.99 59.1201 114.343C59.1201 105.696 52.0887 98.6862 43.4151 98.6862C34.7414 98.6862 27.71 105.696 27.71 114.343C27.71 122.99 34.7414 130 43.4151 130Z" fill="#27B34B"/>
<path d="M110.351 108.363C114.686 108.363 118.199 104.86 118.199 100.539C118.199 96.2174 114.686 92.7144 110.351 92.7144C106.016 92.7144 102.503 96.2174 102.503 100.539C102.503 104.86 106.016 108.363 110.351 108.363Z" fill="#27B34B"/>
<path d="M92.3395 11.7406C92.3395 15.7869 90.7829 19.4513 88.3053 22.2869C95.3306 25.1388 101.5 29.5994 106.406 35.2138C109.21 33.865 112.291 32.6381 115.094 31.8581C109.332 23.2456 101.5 16.1525 92.2906 11.2613C92.2906 11.4238 92.3395 11.5781 92.3395 11.7406Z" fill="#27B34B"/>
<path d="M42.7223 27.4706C50.4729 22.035 59.8943 18.8012 70.0818 18.7687C69.2587 14.2512 69.275 8.8725 70.147 4.39562C67.7428 4.11937 65.306 3.9325 62.8202 3.9325C51.0516 3.9325 40.0817 7.215 30.6684 12.8294C36.4631 15.8275 40.8804 21.1087 42.7304 27.4706H42.7223Z" fill="#27B34B"/>
<path d="M98.9003 104.821C90.9051 110.776 81.011 114.351 70.2612 114.351C63.1381 114.351 56.4061 112.759 50.3344 109.988C49.9187 115.391 48.5496 121.444 46.5773 126.994C51.7688 128.375 57.1886 129.179 62.8121 129.179C79.5603 129.179 94.7438 122.606 105.999 111.946C102.723 110.695 100.131 108.103 98.9003 104.821Z" fill="#27B34B"/>
<path d="M111.924 41.9331C116.259 41.9331 119.772 38.43 119.772 34.1087C119.772 29.7875 116.259 26.2844 111.924 26.2844C107.589 26.2844 104.075 29.7875 104.075 34.1087C104.075 38.43 107.589 41.9331 111.924 41.9331Z" fill="#27B34B"/>
<path d="M26.2837 47.6775C24.2625 48.6688 22.0213 49.27 19.6252 49.27C14.3929 49.27 9.78 46.6213 7.0416 42.6075C6.34885 42.445 5.5909 42.3394 4.94705 42.1444C1.7604 49.6519 0 57.8906 0 66.5519C0 86.2388 9.13615 103.781 23.3823 115.261C23.366 114.953 23.2927 114.66 23.2927 114.343C23.2927 106.941 27.3758 100.539 33.3742 97.0613C26.4793 88.7819 22.3228 78.1463 22.3228 66.5438C22.3228 59.8244 23.7735 53.4706 26.2837 47.6694V47.6775Z" fill="#27B34B"/>
<path d="M19.6252 14.5356C8.7857 14.5356 0 23.2944 0 34.1087C0 44.9231 8.7857 53.6737 19.6252 53.6737C30.4647 53.6737 39.2504 44.915 39.2504 34.1087C39.2504 23.3025 30.4647 14.5437 19.6252 14.5437V14.5356ZM19.6252 47.0681C12.4532 47.0681 6.6178 41.2506 6.6178 34.1087C6.6178 26.9669 12.4532 21.1412 19.6252 21.1412C26.7972 21.1412 32.6326 26.9587 32.6326 34.1087C32.6326 41.2587 26.7972 47.0681 19.6252 47.0681Z" fill="#27B34B"/>
<path d="M142.853 104.975H140.123L143.978 95.1438H146.708L150.555 104.975H147.825L147.189 103.228H143.497L142.861 104.975H142.853ZM144.32 100.969H146.366L145.339 98.1663L144.32 100.969Z" fill="#248FCE"/>
<path d="M151.272 104.975V95.1438H153.872V104.975H151.272Z" fill="#248FCE"/>
<path d="M155.192 104.975V95.1438H158.786C159.634 95.1438 160.368 95.2819 160.987 95.5663C161.606 95.8506 162.087 96.2488 162.421 96.7688C162.755 97.2888 162.927 97.8981 162.927 98.6131C162.927 99.3281 162.755 99.9456 162.421 100.466C162.087 100.986 161.614 101.392 160.995 101.676C160.376 101.961 159.658 102.099 158.819 102.099H157.792V104.975H155.192ZM157.792 99.84H158.526C159.088 99.84 159.512 99.7344 159.813 99.5231C160.115 99.3119 160.253 99.0113 160.253 98.6131C160.253 98.215 160.107 97.9225 159.805 97.7194C159.504 97.5163 159.08 97.4106 158.526 97.4106H157.792V99.84Z" fill="#1A479E"/>
<path d="M169.137 105.17C168.387 105.17 167.686 105.04 167.051 104.788C166.415 104.536 165.861 104.171 165.388 103.716C164.915 103.261 164.548 102.716 164.296 102.091C164.043 101.465 163.905 100.791 163.905 100.059C163.905 99.3281 164.035 98.6456 164.296 98.0281C164.557 97.4106 164.915 96.8663 165.388 96.4031C165.861 95.94 166.415 95.5825 167.051 95.3306C167.686 95.0788 168.387 94.9488 169.137 94.9488C169.887 94.9488 170.588 95.0788 171.223 95.3306C171.859 95.5825 172.413 95.9481 172.878 96.4031C173.342 96.8581 173.709 97.4025 173.962 98.0281C174.223 98.6456 174.353 99.3281 174.353 100.059C174.353 100.791 174.223 101.473 173.962 102.091C173.701 102.708 173.342 103.253 172.878 103.716C172.413 104.179 171.859 104.536 171.223 104.788C170.588 105.04 169.895 105.17 169.137 105.17ZM169.137 102.911C169.504 102.911 169.838 102.838 170.148 102.692C170.457 102.546 170.726 102.343 170.963 102.083C171.199 101.823 171.37 101.522 171.5 101.173C171.631 100.823 171.696 100.458 171.696 100.051C171.696 99.645 171.631 99.2794 171.5 98.93C171.37 98.5806 171.191 98.28 170.963 98.02C170.734 97.76 170.465 97.5569 170.148 97.4106C169.83 97.2644 169.496 97.1913 169.137 97.1913C168.778 97.1913 168.436 97.2644 168.118 97.4106C167.8 97.5569 167.531 97.76 167.303 98.02C167.075 98.28 166.888 98.5806 166.757 98.93C166.627 99.2794 166.562 99.645 166.562 100.051C166.562 100.458 166.627 100.823 166.757 101.173C166.888 101.522 167.067 101.823 167.303 102.083C167.54 102.343 167.808 102.546 168.118 102.692C168.428 102.838 168.77 102.911 169.137 102.911Z" fill="#1A479E"/>
<path d="M186.203 104.975H183.766L182.087 99.3769L180.4 104.975H177.963L174.76 95.1438H177.491L179.178 100.791L180.865 95.1438H183.302L184.981 100.774L186.659 95.1438H189.39L186.195 104.975H186.203Z" fill="#1A479E"/>
<path d="M190.123 104.975V95.1438H196.692V97.4025H192.723V98.9219H196.431V101.181H192.723V102.708H196.757V104.967H190.123V104.975Z" fill="#1A479E"/>
<path d="M206.733 104.975H203.856L201.973 101.725H200.604V104.975H198.004V95.1438H202.169C203.025 95.1438 203.75 95.2738 204.353 95.5338C204.956 95.7938 205.413 96.1675 205.73 96.655C206.048 97.1425 206.203 97.7356 206.203 98.4344C206.203 99.0844 206.065 99.645 205.779 100.116C205.494 100.588 205.095 100.961 204.565 101.229L206.725 104.967L206.733 104.975ZM200.612 99.7263H201.973C202.495 99.7263 202.886 99.6288 203.155 99.4338C203.424 99.2388 203.554 98.9463 203.554 98.5644C203.554 98.1825 203.424 97.89 203.155 97.695C202.886 97.5 202.495 97.4025 201.973 97.4025H200.612V99.7181V99.7263Z" fill="#1A479E"/>
<path d="M130.253 97.8169C129.887 97.5569 129.446 97.4269 128.917 97.4269C128.591 97.4269 128.273 97.5 127.955 97.6544C127.637 97.8006 127.344 97.9956 127.067 98.2394L127.116 97.1831V94.8106H125.82V103.773H126.847L126.961 103.131H127.01C127.262 103.374 127.539 103.569 127.841 103.716C128.142 103.854 128.428 103.927 128.713 103.927C129.178 103.927 129.618 103.797 130.017 103.537C130.424 103.277 130.75 102.895 131.003 102.391C131.256 101.888 131.378 101.286 131.378 100.579C131.378 99.9456 131.28 99.385 131.093 98.9138C130.905 98.4425 130.62 98.0769 130.261 97.8169H130.253ZM129.821 101.814C129.683 102.148 129.495 102.399 129.259 102.57C129.023 102.741 128.754 102.83 128.452 102.83C128.265 102.83 128.053 102.789 127.816 102.708C127.58 102.627 127.344 102.481 127.116 102.278V99.255C127.368 99.0031 127.621 98.8081 127.857 98.6863C128.102 98.5644 128.338 98.4994 128.583 98.4994C128.925 98.4994 129.21 98.5806 129.414 98.7513C129.626 98.9219 129.781 99.1575 129.878 99.4663C129.976 99.775 130.033 100.149 130.033 100.588C130.033 101.067 129.96 101.473 129.821 101.806V101.814Z" fill="#4D4D4E"/>
<path d="M135.543 100.766C135.461 101.042 135.38 101.335 135.298 101.628C135.217 101.928 135.135 102.221 135.062 102.505H135.005C134.907 102.213 134.809 101.92 134.72 101.619C134.622 101.327 134.532 101.034 134.434 100.758L133.293 97.565H131.973L134.434 103.716L134.296 104.146C134.182 104.479 134.027 104.747 133.823 104.975C133.619 105.194 133.35 105.308 133.008 105.308C132.926 105.308 132.845 105.3 132.763 105.276C132.682 105.251 132.609 105.235 132.552 105.219L132.307 106.234C132.421 106.275 132.535 106.299 132.666 106.324C132.788 106.348 132.935 106.356 133.098 106.356C133.53 106.356 133.905 106.267 134.206 106.08C134.508 105.893 134.76 105.641 134.98 105.308C135.192 104.975 135.38 104.585 135.543 104.146L137.817 97.5812H136.561L135.559 100.774L135.543 100.766Z" fill="#4D4D4E"/>
<path d="M57.2049 48.9369L43.4965 83.915H53.2032L55.4689 77.6912H68.6149L70.8806 83.915H80.5872L66.9033 48.9369H57.1967H57.2049ZM58.4192 69.6394L62.0459 59.6619L65.6971 69.6394H58.4192Z" fill="#248FCE"/>
<path d="M92.4292 48.9369H83.1626V83.915H92.4292V48.9369Z" fill="#248FCE"/>
<path d="M108.705 48.9369L94.9964 83.915H104.703L106.969 77.6912H120.115L122.38 83.915H132.087L118.403 48.9369H108.697H108.705ZM109.927 69.6394L113.554 59.6619L117.205 69.6394H109.927Z" fill="#1A479E"/>
<path d="M149.879 71.8331C149.879 73.3687 149.569 74.5631 148.941 75.4162C148.314 76.2694 147.434 76.6837 146.301 76.6837C145.168 76.6837 144.337 76.2612 143.742 75.4244C143.147 74.5875 142.845 73.385 142.845 71.8331V60.5962H134.214V74.1894C134.214 77.3744 135.029 79.8687 136.667 81.6725C138.306 83.4762 140.571 84.3781 143.473 84.3781C145.266 84.3781 146.83 84.0206 148.175 83.3137C149.52 82.6069 150.596 81.5669 151.403 80.2019L151.68 83.9069H158.509V60.5881H149.879V71.825V71.8331Z" fill="#1A479E"/>
<path d="M177.637 76.6838C176.733 76.6838 175.942 76.375 175.274 75.7656C174.606 75.1563 174.271 74.2463 174.271 73.0519V68.2744H180.425V60.6044H174.271V54.7706H166.105V60.6044H161.541V68.2744H165.632V74.62C165.632 76.5456 166.056 78.2438 166.904 79.7144C167.751 81.185 168.933 82.3306 170.449 83.1512C171.965 83.9719 173.709 84.3863 175.69 84.3863C177.515 84.3863 179.406 84.0125 181.37 83.265L180.294 75.8063C179.439 76.3994 178.55 76.6919 177.629 76.6919L177.637 76.6838Z" fill="#1A479E"/>
<path d="M202.56 61.7013C200.653 60.6531 198.461 60.125 195.999 60.125C193.538 60.125 191.362 60.6531 189.439 61.7013C187.515 62.7494 185.999 64.1875 184.899 66.0156C183.799 67.8438 183.253 69.9238 183.253 72.2556C183.253 74.5875 183.799 76.6675 184.899 78.4956C185.999 80.3238 187.507 81.7619 189.439 82.81C191.37 83.8581 193.554 84.3863 195.999 84.3863C198.444 84.3863 200.653 83.8581 202.56 82.81C204.467 81.7619 205.975 80.3238 207.059 78.4956C208.143 76.6675 208.697 74.5875 208.697 72.2556C208.697 69.9238 208.151 67.8438 207.059 66.0156C205.967 64.1875 204.467 62.7494 202.56 61.7013ZM199.357 74.5225C199.023 75.1969 198.558 75.725 197.98 76.1069C197.401 76.4888 196.725 76.6756 195.983 76.6756C195.241 76.6756 194.565 76.4888 193.986 76.1069C193.408 75.725 192.943 75.1969 192.609 74.5225C192.275 73.8481 192.104 73.0763 192.104 72.1988C192.104 71.3213 192.275 70.6062 192.609 69.9481C192.943 69.29 193.408 68.77 193.986 68.3881C194.565 68.0062 195.241 67.8194 195.983 67.8194C196.725 67.8194 197.401 68.0062 197.98 68.3881C198.558 68.77 199.023 69.29 199.357 69.9481C199.691 70.6062 199.862 71.3619 199.862 72.1988C199.862 73.0356 199.691 73.84 199.357 74.5225Z" fill="#1A479E"/>
<path d="M241.99 60.125C240.303 60.125 238.836 60.4663 237.573 61.1406C236.309 61.815 235.274 62.8063 234.459 64.1144C233.709 62.8225 232.699 61.8394 231.419 61.1569C230.14 60.4744 228.64 60.1331 226.929 60.1331C225.217 60.1331 223.734 60.4825 222.446 61.1813C221.158 61.88 220.115 62.8956 219.325 64.2362L219.048 60.5963H212.218V83.915H220.849V72.6781C220.849 71.1425 221.134 69.9481 221.704 69.095C222.275 68.2419 223.082 67.8275 224.125 67.8275C225.168 67.8275 225.918 68.25 226.464 69.0869C227.01 69.9237 227.279 71.1262 227.279 72.6781V83.915H235.91V72.6781C235.91 71.1425 236.195 69.9481 236.766 69.095C237.336 68.2419 238.143 67.8275 239.186 67.8275C240.229 67.8275 240.979 68.25 241.525 69.0869C242.071 69.9237 242.34 71.1262 242.34 72.6781V83.915H250.971V70.3219C250.971 67.1206 250.181 64.6181 248.599 62.8225C247.018 61.0269 244.818 60.1331 241.99 60.1331V60.125Z" fill="#1A479E"/>
<path d="M271.729 61.5387C269.928 60.5962 267.801 60.125 265.356 60.125C263.816 60.125 262.202 60.32 260.515 60.71C258.828 61.1 257.133 61.6769 255.413 62.4325L257.613 68.7538C258.396 68.1769 259.276 67.7381 260.27 67.4213C261.265 67.1044 262.283 66.9581 263.343 66.9581C264.402 66.9581 265.323 67.1125 266.138 67.4213C266.953 67.73 267.597 68.1606 268.054 68.705C268.51 69.2494 268.746 69.875 268.746 70.59V70.9637C267.858 70.59 266.945 70.3056 266.008 70.1106C265.071 69.9156 264.117 69.8181 263.155 69.8181C261.379 69.8181 259.798 70.135 258.42 70.7606C257.043 71.3862 255.959 72.2556 255.177 73.3606C254.394 74.4656 254.003 75.7494 254.003 77.2119C254.003 78.5931 254.362 79.8281 255.079 80.9088C255.796 81.9894 256.782 82.8344 258.029 83.4519C259.276 84.0694 260.702 84.37 262.308 84.37C263.742 84.37 265.071 84.11 266.285 83.59C267.499 83.07 268.534 82.3225 269.398 81.3394L269.822 83.9069H277.377V71.5975C277.377 69.2656 276.888 67.2425 275.902 65.52C274.916 63.7975 273.53 62.4731 271.729 61.5306V61.5387ZM268.697 74.9775C268.697 75.4731 268.477 75.9606 268.045 76.4481C267.613 76.9356 267.051 77.3256 266.375 77.6344C265.698 77.9431 265.005 78.0975 264.305 78.0975C263.791 78.0975 263.327 78.0081 262.911 77.8294C262.495 77.6506 262.177 77.3988 261.941 77.0737C261.705 76.7488 261.591 76.3831 261.591 75.9769C261.591 75.3431 261.876 74.8394 262.446 74.4738C263.017 74.1081 263.791 73.9294 264.777 73.9294C265.462 73.9294 266.146 74.0188 266.839 74.1975C267.532 74.3762 268.151 74.6281 268.714 74.9531V74.9775H268.697Z" fill="#1A479E"/>
<path d="M295.34 76.6838C294.435 76.6838 293.645 76.375 292.976 75.7656C292.308 75.1563 291.974 74.2463 291.974 73.0519V68.2744H298.127V60.6044H291.974V54.7706H283.807V60.6044H279.243V68.2744H283.335V74.62C283.335 76.5456 283.759 78.2438 284.606 79.7144C285.454 81.185 286.636 82.3306 288.151 83.1512C289.667 83.9719 291.411 84.3863 293.392 84.3863C295.217 84.3863 297.108 84.0125 299.072 83.265L297.997 75.8063C297.141 76.3994 296.253 76.6919 295.332 76.6919L295.34 76.6838Z" fill="#1A479E"/>
<path d="M325.894 73.6044C325.894 70.9312 325.372 68.5831 324.329 66.56C323.286 64.5369 321.827 62.9606 319.953 61.8231C318.078 60.6856 315.902 60.1169 313.425 60.1169C310.947 60.1169 308.926 60.6287 307.051 61.6525C305.177 62.6762 303.685 64.0737 302.593 65.8369C301.501 67.6 300.955 69.6069 300.955 71.8412C300.955 74.2219 301.566 76.3506 302.789 78.2437C304.011 80.1369 305.674 81.6237 307.768 82.7206C309.863 83.8175 312.235 84.3619 314.867 84.3619C318.282 84.3619 321.444 83.3869 324.362 81.445L322.112 75.4975C320.148 76.895 318.062 77.5937 315.87 77.5937C314.875 77.5937 313.995 77.4475 313.253 77.1469C312.512 76.8462 311.884 76.4562 311.379 75.9687C310.874 75.4812 310.491 74.9287 310.205 74.3275H325.878V73.58L325.894 73.6044ZM309.822 70.85C309.945 70.1675 310.181 69.5419 310.539 68.9812C310.898 68.4206 311.346 67.9737 311.909 67.6325C312.471 67.2912 313.123 67.1206 313.873 67.1206C314.623 67.1206 315.275 67.2831 315.87 67.6C316.465 67.9169 316.954 68.3556 317.32 68.9162C317.687 69.4769 317.907 70.1187 317.989 70.85H309.822Z" fill="#1A479E"/>
</g>
<defs>
<clipPath id="clip0_427_84">
<rect width="326" height="130" fill="white"/>
</clipPath>
</defs>
</svg>
