<svg width="355" height="160" viewBox="0 0 355 160" fill="none" xmlns="http://www.w3.org/2000/svg">
<g clip-path="url(#clip0_427_190)">
<path d="M93.43 28.9C101.411 28.9 107.88 22.4305 107.88 14.45C107.88 6.46949 101.411 0 93.43 0C85.4495 0 78.98 6.46949 78.98 14.45C78.98 22.4305 85.4495 28.9 93.43 28.9Z" fill="#27B34B"/>
<path d="M53.27 160C63.9125 160 72.54 151.373 72.54 140.73C72.54 130.087 63.9125 121.46 53.27 121.46C42.6275 121.46 34 130.087 34 140.73C34 151.373 42.6275 160 53.27 160Z" fill="#27B34B"/>
<path d="M135.4 133.37C140.718 133.37 145.03 129.059 145.03 123.74C145.03 118.421 140.718 114.11 135.4 114.11C130.081 114.11 125.77 118.421 125.77 123.74C125.77 129.059 130.081 133.37 135.4 133.37Z" fill="#27B34B"/>
<path d="M113.3 14.45C113.3 19.43 111.39 23.94 108.35 27.43C116.97 30.94 124.54 36.43 130.56 43.34C134 41.68 137.78 40.17 141.22 39.21C134.15 28.61 124.54 19.88 113.24 13.86C113.24 14.06 113.3 14.25 113.3 14.45Z" fill="#27B34B"/>
<path d="M52.42 33.81C61.93 27.12 73.49 23.14 85.99 23.1C84.98 17.54 85 10.92 86.07 5.41C83.12 5.07 80.13 4.84 77.08 4.84C62.64 4.84 49.18 8.88 37.63 15.79C44.74 19.48 50.16 25.98 52.43 33.81H52.42Z" fill="#27B34B"/>
<path d="M121.35 129.01C111.54 136.34 99.4 140.74 86.21 140.74C77.47 140.74 69.21 138.78 61.76 135.37C61.25 142.02 59.57 149.47 57.15 156.3C63.52 158 70.17 158.99 77.07 158.99C97.62 158.99 116.25 150.9 130.06 137.78C126.04 136.24 122.86 133.05 121.35 129.01Z" fill="#27B34B"/>
<path d="M137.33 51.61C142.649 51.61 146.96 47.2985 146.96 41.98C146.96 36.6615 142.649 32.35 137.33 32.35C132.011 32.35 127.7 36.6615 127.7 41.98C127.7 47.2985 132.011 51.61 137.33 51.61Z" fill="#27B34B"/>
<path d="M32.25 58.68C29.77 59.9 27.02 60.64 24.08 60.64C17.66 60.64 12 57.38 8.64 52.44C7.79 52.24 6.86 52.11 6.07 51.87C2.16 61.11 0 71.25 0 81.91C0 106.14 11.21 127.73 28.69 141.86C28.67 141.48 28.58 141.12 28.58 140.73C28.58 131.62 33.59 123.74 40.95 119.46C32.49 109.27 27.39 96.18 27.39 81.9C27.39 73.63 29.17 65.81 32.25 58.67V58.68Z" fill="#27B34B"/>
<path d="M24.08 17.89C10.78 17.89 0 28.67 0 41.98C0 55.29 10.78 66.06 24.08 66.06C37.38 66.06 48.16 55.28 48.16 41.98C48.16 28.68 37.38 17.9 24.08 17.9V17.89ZM24.08 57.93C15.28 57.93 8.12 50.77 8.12 41.98C8.12 33.19 15.28 26.02 24.08 26.02C32.88 26.02 40.04 33.18 40.04 41.98C40.04 50.78 32.88 57.93 24.08 57.93Z" fill="#27B34B"/>
<path d="M175.28 129.2H171.93L176.66 117.1H180.01L184.73 129.2H181.38L180.6 127.05H176.07L175.29 129.2H175.28ZM177.08 124.27H179.59L178.33 120.82L177.08 124.27Z" fill="#248FCE"/>
<path d="M185.61 129.2V117.1H188.8V129.2H185.61Z" fill="#248FCE"/>
<path d="M190.42 129.2V117.1H194.83C195.87 117.1 196.77 117.27 197.53 117.62C198.29 117.97 198.88 118.46 199.29 119.1C199.7 119.74 199.91 120.49 199.91 121.37C199.91 122.25 199.7 123.01 199.29 123.65C198.88 124.29 198.3 124.79 197.54 125.14C196.78 125.49 195.9 125.66 194.87 125.66H193.61V129.2H190.42ZM193.61 122.88H194.51C195.2 122.88 195.72 122.75 196.09 122.49C196.46 122.23 196.63 121.86 196.63 121.37C196.63 120.88 196.45 120.52 196.08 120.27C195.71 120.02 195.19 119.89 194.51 119.89H193.61V122.88Z" fill="#1A479E"/>
<path d="M207.53 129.44C206.61 129.44 205.75 129.28 204.97 128.97C204.19 128.66 203.51 128.21 202.93 127.65C202.35 127.09 201.9 126.42 201.59 125.65C201.28 124.88 201.11 124.05 201.11 123.15C201.11 122.25 201.27 121.41 201.59 120.65C201.91 119.89 202.35 119.22 202.93 118.65C203.51 118.08 204.19 117.64 204.97 117.33C205.75 117.02 206.61 116.86 207.53 116.86C208.45 116.86 209.31 117.02 210.09 117.33C210.87 117.64 211.55 118.09 212.12 118.65C212.69 119.21 213.14 119.88 213.45 120.65C213.77 121.41 213.93 122.25 213.93 123.15C213.93 124.05 213.77 124.89 213.45 125.65C213.13 126.41 212.69 127.08 212.12 127.65C211.55 128.22 210.87 128.66 210.09 128.97C209.31 129.28 208.46 129.44 207.53 129.44ZM207.53 126.66C207.98 126.66 208.39 126.57 208.77 126.39C209.15 126.21 209.48 125.96 209.77 125.64C210.06 125.32 210.27 124.95 210.43 124.52C210.59 124.09 210.67 123.64 210.67 123.14C210.67 122.64 210.59 122.19 210.43 121.76C210.27 121.33 210.05 120.96 209.77 120.64C209.49 120.32 209.16 120.07 208.77 119.89C208.38 119.71 207.97 119.62 207.53 119.62C207.09 119.62 206.67 119.71 206.28 119.89C205.89 120.07 205.56 120.32 205.28 120.64C205 120.96 204.77 121.33 204.61 121.76C204.45 122.19 204.37 122.64 204.37 123.14C204.37 123.64 204.45 124.09 204.61 124.52C204.77 124.95 204.99 125.32 205.28 125.64C205.57 125.96 205.9 126.21 206.28 126.39C206.66 126.57 207.08 126.66 207.53 126.66Z" fill="#1A479E"/>
<path d="M228.47 129.2H225.48L223.42 122.31L221.35 129.2H218.36L214.43 117.1H217.78L219.85 124.05L221.92 117.1H224.91L226.97 124.03L229.03 117.1H232.38L228.46 129.2H228.47Z" fill="#1A479E"/>
<path d="M233.28 129.2V117.1H241.34V119.88H236.47V121.75H241.02V124.53H236.47V126.41H241.42V129.19H233.28V129.2Z" fill="#1A479E"/>
<path d="M253.66 129.2H250.13L247.82 125.2H246.14V129.2H242.95V117.1H248.06C249.11 117.1 250 117.26 250.74 117.58C251.48 117.9 252.04 118.36 252.43 118.96C252.82 119.56 253.01 120.29 253.01 121.15C253.01 121.95 252.84 122.64 252.49 123.22C252.14 123.8 251.65 124.26 251 124.59L253.65 129.19L253.66 129.2ZM246.15 122.74H247.82C248.46 122.74 248.94 122.62 249.27 122.38C249.6 122.14 249.76 121.78 249.76 121.31C249.76 120.84 249.6 120.48 249.27 120.24C248.94 120 248.46 119.88 247.82 119.88H246.15V122.73V122.74Z" fill="#1A479E"/>
<path d="M159.82 120.39C159.37 120.07 158.83 119.91 158.18 119.91C157.78 119.91 157.39 120 157 120.19C156.61 120.37 156.25 120.61 155.91 120.91L155.97 119.61V116.69H154.38V127.72H155.64L155.78 126.93H155.84C156.15 127.23 156.49 127.47 156.86 127.65C157.23 127.82 157.58 127.91 157.93 127.91C158.5 127.91 159.04 127.75 159.53 127.43C160.03 127.11 160.43 126.64 160.74 126.02C161.05 125.4 161.2 124.66 161.2 123.79C161.2 123.01 161.08 122.32 160.85 121.74C160.62 121.16 160.27 120.71 159.83 120.39H159.82ZM159.29 125.31C159.12 125.72 158.89 126.03 158.6 126.24C158.31 126.45 157.98 126.56 157.61 126.56C157.38 126.56 157.12 126.51 156.83 126.41C156.54 126.31 156.25 126.13 155.97 125.88V122.16C156.28 121.85 156.59 121.61 156.88 121.46C157.18 121.31 157.47 121.23 157.77 121.23C158.19 121.23 158.54 121.33 158.79 121.54C159.05 121.75 159.24 122.04 159.36 122.42C159.48 122.8 159.55 123.26 159.55 123.8C159.55 124.39 159.46 124.89 159.29 125.3V125.31Z" fill="#4D4D4E"/>
<path d="M166.31 124.02C166.21 124.36 166.11 124.72 166.01 125.08C165.91 125.45 165.81 125.81 165.72 126.16H165.65C165.53 125.8 165.41 125.44 165.3 125.07C165.18 124.71 165.07 124.35 164.95 124.01L163.55 120.08H161.93L164.95 127.65L164.78 128.18C164.64 128.59 164.45 128.92 164.2 129.2C163.95 129.47 163.62 129.61 163.2 129.61C163.1 129.61 163 129.6 162.9 129.57C162.8 129.54 162.71 129.52 162.64 129.5L162.34 130.75C162.48 130.8 162.62 130.83 162.78 130.86C162.93 130.89 163.11 130.9 163.31 130.9C163.84 130.9 164.3 130.79 164.67 130.56C165.04 130.33 165.35 130.02 165.62 129.61C165.88 129.2 166.11 128.72 166.31 128.18L169.1 120.1H167.56L166.33 124.03L166.31 124.02Z" fill="#4D4D4E"/>
<path d="M70.39 59.98L53.37 103.56H65.43L68.25 95.8H84.58L87.4 103.56H99.46L82.46 59.98H70.4H70.39ZM71.9 85.78L76.4 73.35L80.93 85.78H71.89H71.9Z" fill="#248FCE"/>
<path d="M114.14 59.98H102.64V103.56H114.14V59.98Z" fill="#248FCE"/>
<path d="M146.51 93.25C145.06 94.02 143.47 94.41 141.75 94.41C140.16 94.41 138.69 94.09 137.33 93.45C135.97 92.81 134.79 91.92 133.77 90.76C132.75 89.6 131.96 88.27 131.4 86.74C130.84 85.21 130.56 83.54 130.56 81.74C130.56 79.94 130.84 78.3 131.4 76.77C131.96 75.24 132.75 73.9 133.77 72.76C134.79 71.62 135.97 70.73 137.33 70.09C138.69 69.45 140.16 69.13 141.75 69.13C143.47 69.13 145.07 69.52 146.53 70.29C147.99 71.06 149.23 72.13 150.23 73.49L158.25 65.41C156.2 63.43 153.78 61.89 151 60.78C148.22 59.67 145.19 59.11 141.92 59.11C138.65 59.11 135.54 59.68 132.73 60.81C129.92 61.94 127.46 63.53 125.38 65.57C123.3 67.61 121.68 70.01 120.53 72.76C119.38 75.51 118.8 78.51 118.8 81.77C118.8 85.03 119.38 88.03 120.53 90.78C121.68 93.53 123.3 95.93 125.38 97.97C127.46 100.01 129.91 101.6 132.73 102.73C135.55 103.86 138.61 104.43 141.92 104.43C145.23 104.43 148.26 103.88 151.06 102.77C153.86 101.66 156.28 100.13 158.34 98.15L150.21 90.04C149.2 91.4 147.97 92.46 146.52 93.24L146.51 93.25Z" fill="#1A479E"/>
<path d="M184.93 75.89C182.56 74.58 179.84 73.93 176.78 73.93C173.72 73.93 171.02 74.58 168.63 75.89C166.24 77.2 164.36 78.99 162.99 81.26C161.62 83.53 160.94 86.13 160.94 89.03C160.94 91.93 161.62 94.53 162.99 96.8C164.36 99.07 166.23 100.87 168.63 102.17C171.03 103.47 173.74 104.13 176.78 104.13C179.82 104.13 182.56 103.48 184.93 102.17C187.3 100.86 189.17 99.07 190.52 96.8C191.87 94.53 192.55 91.93 192.55 89.03C192.55 86.13 191.87 83.53 190.52 81.26C189.17 78.99 187.3 77.19 184.93 75.89ZM180.95 91.87C180.53 92.71 179.96 93.37 179.24 93.85C178.52 94.33 177.69 94.56 176.76 94.56C175.83 94.56 175 94.32 174.28 93.85C173.56 93.38 172.98 92.72 172.57 91.87C172.16 91.02 171.95 90.06 171.95 88.98C171.95 87.9 172.16 87 172.57 86.18C172.98 85.36 173.56 84.71 174.28 84.23C175 83.75 175.83 83.52 176.76 83.52C177.69 83.52 178.52 83.76 179.24 84.23C179.96 84.7 180.54 85.35 180.95 86.18C181.36 87.01 181.57 87.94 181.57 88.98C181.57 90.02 181.36 91.03 180.95 91.87Z" fill="#1A479E"/>
<path d="M215.59 73.93C213.36 73.93 211.42 74.37 209.77 75.25C208.12 76.13 206.77 77.42 205.75 79.13L205.4 74.51H196.92V103.56H207.64V89.56C207.64 88.28 207.81 87.19 208.16 86.29C208.51 85.39 209.02 84.7 209.69 84.23C210.36 83.76 211.16 83.52 212.09 83.52C213.47 83.52 214.53 84.04 215.27 85.09C216.01 86.14 216.39 87.63 216.39 89.56V103.56H227.11V86.62C227.11 82.63 226.09 79.52 224.06 77.28C222.03 75.04 219.21 73.92 215.61 73.92L215.59 73.93Z" fill="#1A479E"/>
<path d="M251.01 73.93C248.78 73.93 246.84 74.37 245.19 75.25C243.54 76.13 242.19 77.42 241.17 79.13L240.82 74.51H232.34V103.56H243.06V89.56C243.06 88.28 243.23 87.19 243.58 86.29C243.93 85.39 244.44 84.7 245.11 84.23C245.78 83.76 246.58 83.52 247.51 83.52C248.89 83.52 249.95 84.04 250.69 85.09C251.43 86.14 251.81 87.63 251.81 89.56V103.56H262.53V86.62C262.53 82.63 261.51 79.52 259.48 77.28C257.45 75.04 254.63 73.92 251.03 73.92L251.01 73.93Z" fill="#1A479E"/>
<path d="M289.88 76.05C287.56 74.64 284.85 73.93 281.77 73.93C278.69 73.93 276.19 74.57 273.85 75.85C271.51 77.13 269.67 78.87 268.32 81.06C266.97 83.25 266.29 85.75 266.29 88.54C266.29 91.5 267.05 94.16 268.57 96.51C270.09 98.86 272.15 100.72 274.76 102.09C277.37 103.46 280.3 104.14 283.58 104.14C287.82 104.14 291.75 102.93 295.37 100.51L292.58 93.1C290.14 94.84 287.55 95.71 284.82 95.71C283.58 95.71 282.5 95.53 281.57 95.16C280.64 94.79 279.87 94.3 279.25 93.69C278.63 93.08 278.15 92.4 277.8 91.64H297.26V90.71C297.26 87.38 296.61 84.45 295.31 81.94C294.01 79.43 292.2 77.46 289.88 76.04V76.05ZM277.3 87.29C277.45 86.44 277.75 85.66 278.19 84.97C278.63 84.28 279.19 83.71 279.89 83.29C280.59 82.87 281.4 82.65 282.33 82.65C283.26 82.65 284.07 82.85 284.81 83.25C285.55 83.65 286.16 84.19 286.61 84.89C287.06 85.59 287.34 86.39 287.44 87.3H277.3V87.29Z" fill="#1A479E"/>
<path d="M319.8 93.9C318.83 94.34 317.82 94.55 316.78 94.55C315.74 94.55 314.73 94.31 313.87 93.84C313.01 93.37 312.35 92.71 311.87 91.86C311.39 91.01 311.14 90.05 311.14 88.97C311.14 87.89 311.38 86.96 311.87 86.14C312.36 85.32 313.02 84.67 313.87 84.21C314.72 83.75 315.69 83.51 316.78 83.51C317.87 83.51 318.83 83.73 319.79 84.16C320.75 84.59 321.53 85.18 322.13 85.92L328.38 79.33C326.97 77.66 325.2 76.35 323.08 75.38C320.96 74.41 318.6 73.93 316.01 73.93C312.97 73.93 310.25 74.58 307.86 75.89C305.47 77.2 303.59 78.99 302.22 81.26C300.85 83.53 300.17 86.13 300.17 89.03C300.17 91.93 300.85 94.53 302.22 96.8C303.59 99.07 305.46 100.87 307.86 102.17C310.26 103.47 312.97 104.13 316.01 104.13C318.62 104.13 321 103.64 323.13 102.66C325.26 101.68 327.03 100.34 328.45 98.64L322.15 92.13C321.57 92.87 320.79 93.45 319.83 93.89L319.8 93.9Z" fill="#1A479E"/>
<path d="M353.47 93.45C352.4 94.19 351.3 94.55 350.16 94.55C349.02 94.55 348.06 94.17 347.23 93.4C346.4 92.63 345.98 91.51 345.98 90.02V84.06H353.62V74.5H345.98V67.24H335.84V74.5H330.17V84.06H335.25V91.96C335.25 94.36 335.78 96.48 336.83 98.31C337.88 100.14 339.35 101.57 341.23 102.6C343.11 103.63 345.28 104.14 347.74 104.14C350.01 104.14 352.36 103.68 354.8 102.75L353.46 93.45H353.47Z" fill="#1A479E"/>
</g>
<defs>
<clipPath id="clip0_427_190">
<rect width="354.81" height="160" fill="white"/>
</clipPath>
</defs>
</svg>
