<svg width="372" height="160" viewBox="0 0 372 160" fill="none" xmlns="http://www.w3.org/2000/svg">
<g clip-path="url(#clip0_427_358)">
<path d="M93.4 29C101.408 29 107.9 22.5081 107.9 14.5C107.9 6.49187 101.408 0 93.4 0C85.3919 0 78.9 6.49187 78.9 14.5C78.9 22.5081 85.3919 29 93.4 29Z" fill="#27B34B"/>
<path d="M53.3 160C63.9591 160 72.6 151.359 72.6 140.7C72.6 130.041 63.9591 121.4 53.3 121.4C42.6409 121.4 34 130.041 34 140.7C34 151.359 42.6409 160 53.3 160Z" fill="#27B34B"/>
<path d="M135.4 133.3C140.702 133.3 145 129.002 145 123.7C145 118.398 140.702 114.1 135.4 114.1C130.098 114.1 125.8 118.398 125.8 123.7C125.8 129.002 130.098 133.3 135.4 133.3Z" fill="#27B34B"/>
<path d="M113.3 14.4C113.3 19.4 111.4 23.9 108.4 27.4C117 30.9 124.6 36.4 130.6 43.3C134 41.6 137.8 40.1 141.3 39.2C134.2 28.6 124.6 19.9 113.3 13.9C113.3 14.1 113.3 14.3 113.3 14.5V14.4Z" fill="#27B34B"/>
<path d="M52.4 33.8C61.9 27.1 73.5 23.1 86 23.1C85 17.5 85 10.9 86 5.4C83 5.1 80.1 4.8 77 4.8C62.6 4.8 49.1 8.8 37.5 15.8C44.6 19.5 50 26 52.3 33.8H52.4Z" fill="#27B34B"/>
<path d="M121.3 129C111.5 136.3 99.4 140.7 86.2 140.7C73 140.7 69.2 138.7 61.7 135.3C61.2 141.9 59.5 149.4 57.1 156.2C63.5 157.9 70.1 158.9 77 158.9C97.6 158.9 116.2 150.8 130 137.7C126 136.2 122.8 133 121.3 128.9V129Z" fill="#27B34B"/>
<path d="M137.3 51.6C142.602 51.6 146.9 47.3019 146.9 42C146.9 36.6981 142.602 32.4 137.3 32.4C131.998 32.4 127.7 36.6981 127.7 42C127.7 47.3019 131.998 51.6 137.3 51.6Z" fill="#27B34B"/>
<path d="M32.3 58.7C29.8 59.9 27.1 60.7 24.1 60.7C17.7 60.7 12 57.4 8.7 52.5C7.9 52.3 6.9 52.2 6.1 51.9C2.2 61.1 0 71.3 0 81.9C0 106.1 11.2 127.7 28.7 141.9C28.7 141.5 28.6 141.2 28.6 140.8C28.6 131.7 33.6 123.8 41 119.5C32.5 109.3 27.4 96.2 27.4 81.9C27.4 67.6 29.2 65.8 32.3 58.7Z" fill="#27B34B"/>
<path d="M24.1 17.9C10.8 17.9 0 28.7 0 42C0 55.3 10.8 66.1 24.1 66.1C37.4 66.1 48.2 55.3 48.2 42C48.2 28.7 37.4 17.9 24.1 17.9ZM24.1 57.9C15.3 57.9 8.1 50.7 8.1 41.9C8.1 33.1 15.3 25.9 24.1 25.9C32.9 25.9 40.1 33.1 40.1 41.9C40.1 50.7 32.9 57.9 24.1 57.9Z" fill="#27B34B"/>
<path d="M67.3 108.6H53.7L72.9 59.5H86.5L105.6 108.6H92L88.8 99.9H70.4L67.2 108.6H67.3ZM74.6 88.6H84.8L79.7 74.6L74.6 88.6Z" fill="#238ECD"/>
<path d="M109.2 108.6V59.5H122.2V108.6H109.2Z" fill="#238ECD"/>
<path d="M162 108.6H128.6V59.5H141.6V97.3H162V108.6Z" fill="#1B499B"/>
<path d="M180.2 109.3C176.8 109.3 173.7 108.6 171 107.1C168.3 105.6 166.2 103.6 164.7 101C163.2 98.4 162.4 95.5 162.4 92.2C162.4 88.9 163.2 86 164.7 83.4C166.2 80.8 168.4 78.8 171 77.3C173.7 75.8 176.8 75.1 180.2 75.1C183.6 75.1 186.7 75.8 189.4 77.3C192.1 78.8 194.2 80.8 195.7 83.4C197.2 86 198 88.9 198 92.2C198 95.5 197.2 98.4 195.7 101C194.2 103.6 192.1 105.6 189.4 107.1C186.7 108.6 183.7 109.3 180.2 109.3ZM180.2 98.5C181.2 98.5 182.2 98.2 183 97.7C183.8 97.2 184.5 96.4 184.9 95.5C185.4 94.6 185.6 93.5 185.6 92.2C185.6 90.9 185.4 90 184.9 89C184.4 88.1 183.8 87.3 183 86.8C182.2 86.3 181.2 86 180.2 86C179.2 86 178.2 86.3 177.4 86.8C176.6 87.3 175.9 88.1 175.5 89C175 89.9 174.8 91 174.8 92.2C174.8 93.4 175 94.5 175.5 95.5C176 96.4 176.6 97.2 177.4 97.7C178.2 98.2 179.2 98.5 180.2 98.5Z" fill="#1B499B"/>
<path d="M222.7 125H209.9L216.6 108.7L199.5 75.9H213.2L222.3 95L230.2 75.9H243L222.7 125Z" fill="#1B499B"/>
<path d="M276.7 108.6H266.1L265.5 105C264.3 106.4 262.9 107.4 261.1 108.2C259.3 109 257.5 109.3 255.5 109.3C253.5 109.3 251.3 108.9 249.5 108C247.8 107.1 246.4 106 245.4 104.4C244.4 102.9 243.9 101.2 243.9 99.2C243.9 97.2 244.4 95.4 245.5 93.8C246.6 92.3 248.1 91 250 90.2C251.9 89.3 254.1 88.9 256.6 88.9C259.1 88.9 259.3 89 260.6 89.3C261.9 89.6 263.2 90 264.4 90.5V90C264.4 89 264.1 88.1 263.4 87.4C262.8 86.6 261.9 86 260.7 85.6C259.6 85.2 258.3 84.9 256.8 84.9C255.3 84.9 253.9 85.1 252.5 85.6C251.1 86 249.9 86.7 248.8 87.5L245.7 78.6C248.1 77.5 250.5 76.7 252.8 76.2C255.2 75.7 257.4 75.4 259.6 75.4C263 75.4 266 76.1 268.5 77.4C271 78.7 273 80.6 274.3 83C275.6 85.4 276.4 88.3 276.4 91.5V108.8L276.7 108.6ZM258.5 100.5C259.5 100.5 260.4 100.3 261.4 99.8C262.3 99.4 263.1 98.8 263.7 98.1C264.3 97.4 264.6 96.7 264.6 96C263.8 95.5 262.9 95.2 262 94.9C261 94.7 260.1 94.5 259.1 94.5C257.7 94.5 256.6 94.8 255.8 95.3C255 95.8 254.6 96.5 254.6 97.4C254.6 98.3 254.8 98.5 255.1 98.9C255.4 99.3 255.9 99.7 256.5 100C257.1 100.3 257.7 100.4 258.4 100.4L258.5 100.5Z" fill="#1B499B"/>
<path d="M295.6 108.6H282.6V59.5H295.6V108.6Z" fill="#1B499B"/>
<path d="M327.6 107.7C324.9 108.7 322.2 109.3 319.6 109.3C317 109.3 314.4 108.7 312.3 107.6C310.2 106.4 308.5 104.8 307.3 102.8C306.1 100.7 305.5 98.4 305.5 95.7V86.8H299.8V76H306.2V67.8H317.6V76H326.2V86.8H317.6V93.5C317.6 95.2 318.1 96.5 319 97.3C319.9 98.2 321 98.6 322.3 98.6C323.6 98.6 324.8 98.2 326 97.4L327.5 107.9L327.6 107.7Z" fill="#1B499B"/>
<path d="M351.7 125H338.9L345.6 108.7L328.5 75.9H342.2L351.3 95L359.2 75.9H372L351.7 125Z" fill="#1B499B"/>
<path d="M253.3 129.2H250L254.7 117.1H258L262.7 129.2H259.4L258.6 127H254.1L253.3 129.2ZM255.1 124.3H257.6L256.3 120.8L255.1 124.3Z" fill="#248FCE"/>
<path d="M263.6 129.2V117.1H266.8V129.2H263.6Z" fill="#248FCE"/>
<path d="M268.4 129.2V117.1H272.8C273.8 117.1 274.7 117.3 275.5 117.6C276.3 117.9 276.8 118.4 277.3 119.1C277.8 119.8 277.9 120.5 277.9 121.4C277.9 122.3 277.7 123 277.3 123.7C276.9 124.4 276.3 124.8 275.6 125.2C274.9 125.6 274 125.7 272.9 125.7H271.6V129.2H268.4ZM271.6 122.9H272.5C273.2 122.9 273.7 122.8 274.1 122.5C274.5 122.2 274.6 121.9 274.6 121.4C274.6 120.9 274.4 120.6 274.1 120.3C273.8 120 273.2 119.9 272.5 119.9H271.6V122.9Z" fill="#1A479E"/>
<path d="M285.5 129.4C284.6 129.4 283.7 129.2 282.9 128.9C282.1 128.6 281.4 128.1 280.9 127.6C280.4 127.1 279.9 126.4 279.6 125.6C279.3 124.8 279.1 124 279.1 123.1C279.1 122.2 279.3 121.4 279.6 120.6C279.9 119.8 280.4 119.2 280.9 118.6C281.4 118 282.2 117.6 282.9 117.3C283.6 117 284.5 116.8 285.5 116.8C286.5 116.8 287.3 117 288.1 117.3C288.9 117.6 289.6 118.1 290.1 118.6C290.6 119.1 291.1 119.8 291.4 120.6C291.7 121.4 291.9 122.2 291.9 123.1C291.9 124 291.7 124.8 291.4 125.6C291.1 126.4 290.6 127 290.1 127.6C289.6 128.2 288.9 128.6 288.1 128.9C287.3 129.2 286.5 129.4 285.5 129.4ZM285.5 126.7C285.9 126.7 286.4 126.7 286.7 126.4C287 126.1 287.4 126 287.7 125.7C288 125.4 288.2 125 288.4 124.6C288.6 124.2 288.6 123.7 288.6 123.2C288.6 122.7 288.6 122.2 288.4 121.8C288.2 121.4 288 121 287.7 120.7C287.4 120.4 287.1 120.1 286.7 120C286.3 119.9 285.9 119.7 285.5 119.7C285.1 119.7 284.6 119.7 284.3 120C284 120.3 283.6 120.4 283.3 120.7C283 121 282.8 121.4 282.6 121.8C282.4 122.2 282.4 122.7 282.4 123.2C282.4 123.7 282.4 124.2 282.6 124.6C282.8 125 283 125.4 283.3 125.7C283.6 126 283.9 126.3 284.3 126.4C284.7 126.5 285.1 126.7 285.5 126.7Z" fill="#1A479E"/>
<path d="M303.5 129.2L301.4 122.3L299.3 129.2H296.3L292.4 117.1H295.8L297.9 124.1L300 117.1H303L305.1 124L307.2 117.1H310.6L306.7 129.2H303.5Z" fill="#1A479E"/>
<path d="M311.3 129.2V117.1H319.4V119.9H314.5V121.8H319V124.6H314.5V126.5H319.5V129.3H311.4L311.3 129.2Z" fill="#1A479E"/>
<path d="M331.7 129.2H328.2L325.9 125.2H324.2V129.2H321V117.1H326.1C327.1 117.1 328 117.3 328.8 117.6C329.6 117.9 330.1 118.4 330.5 119C330.9 119.6 331.1 120.3 331.1 121.2C331.1 122.1 330.9 122.7 330.6 123.3C330.3 123.9 329.8 124.3 329.1 124.7L331.8 129.3L331.7 129.2ZM324.2 122.7H325.9C326.5 122.7 327 122.6 327.3 122.3C327.6 122 327.8 121.7 327.8 121.2C327.8 120.7 327.6 120.4 327.3 120.1C327 119.8 326.5 119.7 325.9 119.7H324.2V122.7Z" fill="#1A479E"/>
<path d="M237.8 120.4C237.4 120.1 236.8 119.9 236.2 119.9C235.6 119.9 235.4 119.9 235 120.2C234.6 120.4 234.2 120.6 233.9 120.9V116.7H232.3V127.7H233.6V126.9H233.8C234.1 127.2 234.5 127.4 234.8 127.6C235.2 127.8 235.5 127.9 235.9 127.9C236.5 127.9 237 127.7 237.5 127.4C238 127.1 238.4 126.6 238.7 126C239 125.4 239.2 124.6 239.2 123.8C239.2 123 239.1 122.3 238.8 121.8C238.6 121.2 238.2 120.8 237.8 120.5V120.4ZM237.3 125.3C237.1 125.7 236.9 126 236.6 126.2C236.3 126.4 236 126.5 235.6 126.5C235.2 126.5 235.1 126.5 234.8 126.3C234.5 126.2 234.2 126 233.9 125.8V122.1C234.2 121.8 234.5 121.6 234.8 121.4C235.1 121.2 235.4 121.2 235.7 121.2C236.1 121.2 236.5 121.3 236.7 121.5C237 121.7 237.1 122 237.3 122.4C237.4 122.8 237.5 123.2 237.5 123.8C237.5 124.4 237.5 124.9 237.2 125.3H237.3Z" fill="#4D4D4E"/>
<path d="M244.3 124C244.2 124.3 244.1 124.7 244 125.1C243.9 125.5 243.8 125.8 243.7 126.2C243.6 125.8 243.5 125.5 243.3 125.1C243.2 124.7 243.1 124.4 242.9 124L241.5 120.1H239.9L242.9 127.7L242.7 128.2C242.6 128.6 242.4 128.9 242.1 129.2C241.9 129.5 241.5 129.6 241.1 129.6C240.7 129.6 240.9 129.6 240.8 129.6C240.7 129.6 240.6 129.6 240.5 129.6L240.2 130.8C240.3 130.8 240.5 130.8 240.6 130.9C240.8 130.9 240.9 130.9 241.1 130.9C241.6 130.9 242.1 130.8 242.5 130.6C242.9 130.4 243.2 130.1 243.4 129.6C243.7 129.2 243.9 128.7 244.1 128.2L246.9 120.1H245.4L244.2 124H244.3Z" fill="#4D4D4E"/>
</g>
<defs>
<clipPath id="clip0_427_358">
<rect width="372" height="160" fill="white"/>
</clipPath>
</defs>
</svg>
