<svg width="1472" height="589" viewBox="0 0 1472 589" fill="none" xmlns="http://www.w3.org/2000/svg">
<path d="M307.716 83.6355C312.815 87.06 317.055 91.3126 321.376 95.6481C322.158 96.4266 322.939 97.2048 323.721 97.9827C325.858 100.111 327.99 102.243 330.121 104.376C332.425 106.68 334.733 108.98 337.04 111.28C341.555 115.783 346.066 120.29 350.575 124.799C354.242 128.464 357.909 132.128 361.577 135.792C371.983 146.185 382.386 156.581 392.785 166.981C393.345 167.541 393.905 168.102 394.482 168.679C395.043 169.24 395.604 169.801 396.182 170.378C405.273 179.471 414.372 188.555 423.474 197.637C432.826 206.968 442.173 216.305 451.514 225.648C456.756 230.89 462 236.13 467.25 241.364C471.719 245.82 476.183 250.281 480.641 254.748C482.914 257.026 485.189 259.302 487.471 261.571C489.562 263.65 491.646 265.737 493.726 267.829C494.476 268.582 495.23 269.332 495.986 270.08C503.22 277.242 508.262 283.825 508.625 294.268C508.384 306.906 500.373 314.284 491.881 322.741C491.11 323.515 490.339 324.289 489.568 325.063C487.467 327.171 485.362 329.275 483.255 331.379C480.978 333.654 478.704 335.934 476.43 338.214C471.982 342.671 467.53 347.125 463.076 351.577C459.456 355.196 455.836 358.816 452.218 362.438C451.702 362.954 451.187 363.47 450.655 364.002C449.607 365.051 448.559 366.1 447.511 367.149C437.695 376.973 427.874 386.792 418.052 396.61C409.071 405.587 400.096 414.571 391.123 423.557C381.901 432.793 372.676 442.025 363.445 451.252C358.267 456.429 353.09 461.608 347.917 466.791C343.516 471.201 339.11 475.608 334.7 480.009C332.451 482.254 330.204 484.5 327.961 486.751C325.907 488.814 323.847 490.872 321.783 492.925C321.039 493.667 320.298 494.41 319.558 495.156C312.205 502.563 305.513 508.314 294.767 508.489C281.324 508.348 274.522 499.801 265.557 490.845C264.777 490.069 263.997 489.293 263.217 488.517C261.094 486.404 258.973 484.288 256.852 482.172C255.028 480.353 253.203 478.535 251.377 476.717C245.373 470.736 239.372 464.751 233.373 458.765C231.81 457.206 230.247 455.647 228.684 454.088C218.965 444.391 209.247 434.692 199.533 424.99C197.288 422.749 195.044 420.507 192.799 418.265C192.241 417.708 191.683 417.151 191.109 416.577C182.063 407.544 173.008 398.519 163.951 389.498C154.638 380.224 145.334 370.941 136.038 361.65C130.824 356.439 125.605 351.231 120.378 346.033C115.929 341.609 111.487 337.178 107.055 332.737C104.796 330.473 102.533 328.213 100.261 325.962C98.1769 323.899 96.1037 321.825 94.0381 319.743C93.2926 318.995 92.5435 318.251 91.7902 317.511C85.0547 310.887 80.2224 303.981 80 294.268C80.1604 283.662 86.6293 276.772 93.7362 269.709C94.5333 268.909 95.3299 268.108 96.126 267.307C98.3064 265.117 100.493 262.933 102.682 260.75C105.044 258.391 107.4 256.026 109.757 253.662C114.371 249.035 118.991 244.414 123.614 239.795C127.371 236.041 131.126 232.285 134.879 228.527C135.414 227.992 135.948 227.457 136.499 226.906C137.585 225.819 138.671 224.732 139.757 223.645C149.935 213.457 160.121 203.275 170.309 193.095C179.629 183.783 188.94 174.462 198.248 165.137C207.807 155.56 217.372 145.988 226.943 136.422C232.315 131.052 237.685 125.68 243.05 120.303C247.616 115.726 252.187 111.155 256.764 106.59C259.1 104.261 261.432 101.93 263.758 99.5927C265.889 97.4521 268.026 95.3184 270.169 93.19C270.942 92.4197 271.712 91.647 272.48 90.8715C281.646 81.6214 295.481 75.8626 307.716 83.6355Z" fill="#EA4A54"/>
<path d="M307.716 83.6355C312.816 87.06 317.056 91.3126 321.377 95.6482C322.158 96.4267 322.939 97.2048 323.721 97.9827C325.858 100.111 327.99 102.243 330.121 104.376C332.425 106.68 334.733 108.98 337.04 111.28C341.555 115.783 346.066 120.29 350.576 124.799C354.242 128.464 357.909 132.128 361.577 135.792C371.983 146.185 382.386 156.581 392.785 166.981C393.345 167.542 393.905 168.102 394.482 168.679C395.043 169.24 395.604 169.801 396.182 170.378C405.273 179.471 414.372 188.555 423.474 197.637C432.826 206.968 442.173 216.305 451.514 225.648C456.756 230.89 462.001 236.13 467.251 241.365C471.72 245.82 476.183 250.281 480.641 254.748C482.914 257.026 485.189 259.302 487.471 261.571C489.562 263.651 491.647 265.737 493.726 267.829C494.477 268.582 495.23 269.332 495.986 270.08C503.22 277.242 508.262 283.825 508.625 294.268C508.373 307.515 499.294 315.36 490.494 324.104C489.583 325.015 488.673 325.925 487.763 326.836C485.311 329.289 482.854 331.737 480.397 334.184C477.822 336.749 475.252 339.319 472.681 341.888C467.821 346.744 462.957 351.596 458.092 356.446C452.549 361.972 447.011 367.503 441.473 373.033C430.089 384.402 418.7 395.766 407.307 407.126C406.732 406.55 406.157 405.974 405.565 405.381C404.197 404.016 402.824 402.668 401.419 401.342C390.21 390.711 380.104 380.765 372.806 367.006C370.783 363.315 368.492 359.791 366.235 356.24C362.512 350.314 358.834 344.362 355.194 338.384C354.775 337.697 354.357 337.01 353.925 336.301C353.154 335.032 352.386 333.761 351.622 332.487C350.987 331.432 350.344 330.381 349.688 329.338C347.276 325.401 347.031 322.214 347.698 317.712C349.322 314.275 351.563 312.096 354.967 310.442C357.511 309.74 360.081 309.364 362.691 308.988C363.447 308.871 364.202 308.753 364.981 308.632C371.843 307.578 378.722 306.627 385.597 305.666C390.845 304.927 396.021 304.045 401.219 303.014C405.646 302.184 410.116 301.613 414.577 300.992C420.947 300.105 427.256 299.123 433.568 297.886C437.042 297.234 440.525 296.669 444.018 296.131C444.618 296.035 445.218 295.939 445.837 295.841C449.515 295.285 453.019 295.087 456.739 295.177C456.739 294.697 456.739 294.217 456.739 293.723C455.855 293.68 455.855 293.68 454.952 293.637C447.873 293.223 441.037 292.163 434.068 290.906C431.938 290.527 429.807 290.151 427.676 289.776C427.142 289.681 426.608 289.587 426.058 289.49C416.437 287.799 406.773 286.366 397.117 284.895C391.062 283.972 385.009 283.034 378.956 282.092C378.399 282.005 377.841 281.918 377.266 281.828C373.723 281.276 370.183 280.71 366.644 280.138C365.763 280 364.881 279.862 363.974 279.719C352.342 277.809 352.342 277.809 349.152 274.141C346.914 270.524 347.118 266.563 347.698 262.464C348.866 259.536 350.485 257.031 352.241 254.422C352.934 253.341 352.934 253.341 353.641 252.238C354.586 250.765 355.54 249.297 356.501 247.835C358.485 244.816 360.404 241.759 362.327 238.702C362.679 238.148 363.031 237.595 363.394 237.024C366.413 232.271 369.304 227.446 372.185 222.607C375.295 217.399 378.539 212.288 381.864 207.216C376.326 210.153 370.982 213.31 365.69 216.666C358.39 221.262 351.047 225.778 343.671 230.248C341.049 231.838 338.433 233.437 335.822 235.047C334.916 235.606 334.916 235.606 333.99 236.175C332.862 236.871 331.735 237.568 330.609 238.267C326.569 240.753 323.404 241.998 318.62 241.383C314.942 240.152 313.138 238.314 311.276 234.87C310.107 232.21 309.673 229.472 309.215 226.617C309.098 225.936 308.982 225.256 308.861 224.555C307.614 217.125 306.559 209.662 305.483 202.205C303.856 190.959 301.967 179.761 300.052 168.56C298.036 156.757 296.276 144.928 294.631 133.068C293.248 134.45 293.416 136.838 293.165 138.69C293.021 139.738 292.877 140.786 292.732 141.834C292.619 142.667 292.619 142.667 292.503 143.517C291.292 152.407 289.979 161.263 288.406 170.097C287.011 177.937 285.824 185.79 284.73 193.678C283.985 199.006 283.111 204.272 282.065 209.55C281.451 212.806 280.953 216.072 280.455 219.347C277.846 236.051 277.846 236.051 273.549 239.929C270.245 241.897 267.122 241.95 263.372 241.383C260.719 240.331 258.406 238.881 256.012 237.339C254.985 236.705 254.985 236.705 253.938 236.058C251.742 234.698 249.561 233.316 247.379 231.932C245.92 231.023 244.459 230.115 242.998 229.209C240.072 227.392 237.152 225.566 234.237 223.731C229.478 220.738 224.696 217.781 219.91 214.831C218.746 214.112 217.585 213.388 216.428 212.66C215.266 211.946 214.087 211.261 212.89 210.608C205.572 206.416 200.02 200.154 194.176 194.177C193.057 193.043 191.938 191.911 190.818 190.779C188.098 188.027 185.386 185.267 182.681 182.5C183.834 179.674 185.758 177.762 187.886 175.647C188.465 175.063 188.465 175.063 189.056 174.467C190.35 173.163 191.65 171.865 192.95 170.566C193.879 169.633 194.808 168.699 195.737 167.765C198.261 165.227 200.79 162.695 203.321 160.164C204.902 158.581 206.482 156.998 208.062 155.414C213.575 149.888 219.092 144.365 224.612 138.846C229.754 133.704 234.889 128.554 240.02 123.401C244.427 118.975 248.84 114.554 253.257 110.138C255.894 107.501 258.529 104.862 261.158 102.217C263.633 99.7286 266.114 97.247 268.601 94.7707C269.511 93.8625 270.418 92.9518 271.323 92.0384C272.562 90.788 273.81 89.547 275.06 88.3078C275.589 87.7677 275.589 87.7677 276.129 87.2167C284.006 79.4928 298.326 77.6702 307.716 83.6355Z" fill="#E1353E"/>
<path d="M293.904 130.887C295.546 133.35 295.753 134.85 296.167 137.762C296.235 138.232 296.304 138.702 296.375 139.187C296.523 140.203 296.669 141.221 296.813 142.238C297.197 144.96 297.6 147.679 298.001 150.398C298.083 150.954 298.164 151.51 298.248 152.083C299.186 158.442 300.252 164.776 301.327 171.113C303.038 181.216 304.613 191.34 306.137 201.473C308.253 215.682 308.253 215.682 310.669 229.842C310.806 230.672 310.806 230.672 310.945 231.519C311.753 235.663 313.684 237.733 317.029 240.156C321.302 241.499 324.345 240.899 328.297 239.02C333.361 236.308 338.173 233.193 343.006 230.095C348.207 226.767 353.475 223.549 358.74 220.324C362.648 217.929 366.546 215.521 370.42 213.071C371.479 212.405 371.479 212.405 372.559 211.725C373.89 210.886 375.217 210.043 376.542 209.194C377.129 208.825 377.716 208.457 378.32 208.077C378.832 207.751 379.343 207.425 379.87 207.09C380.288 206.891 380.706 206.693 381.137 206.489C381.617 206.729 382.097 206.969 382.591 207.216C382.335 207.629 382.079 208.042 381.816 208.468C380.62 210.398 379.425 212.328 378.229 214.258C377.792 214.964 377.356 215.669 376.906 216.396C374.705 219.95 372.509 223.507 370.324 227.071C368.049 230.773 365.748 234.459 363.44 238.141C362.487 239.665 361.536 241.19 360.588 242.717C358.417 246.213 356.23 249.689 353.939 253.107C348.844 260.594 348.844 260.594 347.973 269.424C348.653 272.081 349.354 273.62 351.332 275.549C356.826 278.106 362.756 278.847 368.688 279.82C369.823 280.01 370.958 280.201 372.093 280.392C380.205 281.746 388.335 282.963 396.477 284.127C404.979 285.345 413.438 286.749 421.898 288.232C431.648 289.939 441.416 291.397 451.227 292.715C453.08 292.992 454.906 293.339 456.739 293.723C456.739 294.202 456.739 294.682 456.739 295.176C455.972 295.293 455.204 295.41 454.414 295.531C435.555 298.4 435.555 298.4 416.73 301.48C411.798 302.313 406.857 303.069 401.908 303.795C397.155 304.499 392.417 305.281 387.679 306.081C382.188 307.007 376.695 307.896 371.187 308.716C370.593 308.805 369.998 308.895 369.386 308.987C366.783 309.377 364.182 309.745 361.569 310.07C356.148 310.775 352.989 311.455 349.242 315.576C347.613 319.83 347.55 323.646 349.344 327.878C350.568 330.059 351.851 332.17 353.204 334.272C354.369 336.087 355.508 337.917 356.645 339.75C358.478 342.699 360.32 345.642 362.168 348.581C365.735 354.261 369.242 359.976 372.746 365.695C373.198 366.433 373.651 367.171 374.117 367.931C374.554 368.642 374.991 369.354 375.441 370.088C377.233 372.969 379.082 375.812 380.942 378.649C381.864 380.229 381.864 380.229 381.864 381.683C377.915 380.603 374.892 378.717 371.505 376.503C370.27 375.71 369.035 374.918 367.799 374.127C367.138 373.703 366.476 373.278 365.794 372.841C362.045 370.461 358.254 368.147 354.467 365.826C349.558 362.817 344.655 359.799 339.781 356.734C338.981 356.232 338.181 355.729 337.358 355.211C335.83 354.25 334.303 353.286 332.778 352.32C332.095 351.89 331.412 351.461 330.708 351.018C330.109 350.639 329.51 350.26 328.892 349.869C325.387 347.836 321.839 347.801 317.893 348.243C314.573 349.873 312.986 351.517 311.35 354.786C310.919 356.745 310.58 358.621 310.311 360.602C310.227 361.168 310.143 361.735 310.057 362.319C309.878 363.535 309.702 364.752 309.53 365.97C309.072 369.198 308.589 372.421 308.11 375.646C308.015 376.291 307.92 376.936 307.822 377.601C307.012 383.067 306.093 388.509 305.126 393.95C303.841 401.236 302.674 408.533 301.582 415.849C300.316 424.305 299.033 432.758 297.69 441.202C297.499 442.406 297.31 443.612 297.123 444.817C296.863 446.496 296.595 448.174 296.326 449.851C296.249 450.352 296.173 450.853 296.094 451.369C295.695 453.809 295.302 455.188 293.904 457.285C292.106 447.989 290.573 438.669 289.224 429.298C287.45 416.985 285.428 404.722 283.332 392.459C282.961 390.291 282.594 388.123 282.227 385.954C282.11 385.267 281.994 384.58 281.873 383.872C281.208 379.887 280.613 375.898 280.069 371.895C279.943 370.976 279.818 370.057 279.689 369.111C279.448 367.329 279.215 365.547 278.988 363.763C278.07 356.244 278.07 356.244 273.913 350.152C270.338 347.828 266.784 347.535 262.645 348.243C259.329 349.743 256.361 351.689 253.331 353.696C251.736 354.718 250.141 355.74 248.546 356.762C247.754 357.278 246.961 357.794 246.145 358.326C242.995 360.358 239.801 362.315 236.603 364.272C234.364 365.647 232.136 367.039 229.913 368.439C222.253 373.26 214.599 378.041 206.67 382.41C207.94 378.728 209.973 375.542 211.986 372.233C212.373 371.592 212.76 370.951 213.159 370.291C216.647 364.534 220.188 358.811 223.739 353.094C226.417 348.781 229.084 344.463 231.747 340.142C232.503 338.915 233.261 337.688 234.018 336.462C235.328 334.335 236.63 332.203 237.929 330.07C238.249 329.554 238.569 329.039 238.898 328.508C241.005 325.015 241.564 322.433 240.837 318.439C239.327 315.528 237.769 313.648 235.021 311.896C226.008 309.2 216.129 308.061 206.806 306.898C200.329 306.072 193.913 304.894 187.482 303.767C183.101 303.003 178.735 302.26 174.321 301.719C168.019 300.946 161.783 299.782 155.531 298.683C150.015 297.719 144.52 296.851 138.953 296.236C136.699 295.874 134.666 295.226 132.522 294.45C132.522 294.21 132.522 293.97 132.522 293.723C146.047 291.429 159.578 289.197 173.14 287.135C183.48 285.562 193.8 283.898 204.114 282.16C208.234 281.465 212.357 280.791 216.484 280.138C217.027 280.05 217.571 279.963 218.131 279.873C220.603 279.481 223.068 279.127 225.557 278.857C231.641 278.158 235.958 277.129 240.11 272.459C241.411 268.88 241.573 265.793 240.164 262.203C239.026 260.042 237.775 257.989 236.475 255.921C236.19 255.467 235.905 255.012 235.611 254.544C234.249 252.373 232.88 250.207 231.502 248.046C227.836 242.291 224.302 236.458 220.778 230.615C216.983 224.325 213.124 218.082 209.08 211.947C208.234 210.639 207.445 209.295 206.67 207.943C206.91 207.463 207.15 206.984 207.397 206.489C214.477 210.693 221.535 214.921 228.478 219.347C234.382 223.107 240.349 226.76 246.334 230.388C246.767 230.65 247.199 230.912 247.645 231.182C249.705 232.431 251.767 233.677 253.832 234.918C255.294 235.804 256.749 236.703 258.194 237.616C258.826 238.012 259.458 238.408 260.109 238.816C260.651 239.162 261.194 239.508 261.752 239.865C264.662 241.286 267.509 241.289 270.641 240.656C273.968 239.023 275.557 237.393 277.184 234.113C277.815 231.821 278.229 229.503 278.638 227.162C278.761 226.486 278.884 225.81 279.011 225.114C279.916 220.067 280.705 215.005 281.44 209.931C282.136 205.137 282.918 200.361 283.726 195.585C284.725 189.671 285.661 183.752 286.531 177.817C287.213 173.203 287.984 168.606 288.77 164.008C290.092 156.247 291.19 148.463 292.227 140.66C292.34 139.807 292.454 138.955 292.572 138.077C292.671 137.32 292.771 136.563 292.873 135.783C293.129 134.11 293.456 132.517 293.904 130.887Z" fill="#FEFDFD"/>
<path d="M181.954 181.773C182.754 182.453 183.554 183.134 184.353 183.816C185.02 184.385 185.02 184.385 185.702 184.965C187.787 186.784 189.762 188.707 191.731 190.65C192.152 191.065 192.574 191.481 193.008 191.909C193.891 192.782 194.772 193.655 195.653 194.53C196.547 195.416 197.444 196.298 198.345 197.177C199.661 198.462 200.967 199.757 202.272 201.054C202.67 201.44 203.068 201.825 203.479 202.223C206.297 205.057 207.917 207.967 209.578 211.578C210.143 212.548 210.725 213.509 211.336 214.451C211.656 214.951 211.977 215.45 212.307 215.965C212.823 216.762 212.823 216.762 213.349 217.575C217.151 223.518 220.833 229.528 224.48 235.567C228.483 242.193 232.526 248.788 236.718 255.297C242.755 264.725 242.755 264.725 241.564 270.46C239.491 274.563 237.04 276.634 232.84 278.457C230.75 278.963 228.646 279.262 226.516 279.553C225.61 279.686 225.61 279.686 224.685 279.822C223.422 280.007 222.16 280.19 220.897 280.37C218.009 280.784 215.127 281.232 212.244 281.677C211.11 281.85 209.975 282.023 208.84 282.196C197.064 283.99 185.306 285.866 173.56 287.847C169.698 288.498 165.833 289.123 161.963 289.724C152.378 291.214 142.815 292.845 133.249 294.45C137.268 295.286 141.255 296.053 145.334 296.539C149.929 297.131 154.489 297.851 159.055 298.629C164.71 299.592 170.371 300.505 176.042 301.373C176.669 301.468 177.297 301.564 177.944 301.663C181.09 302.144 184.237 302.621 187.385 303.095C192.632 303.891 197.855 304.7 203.051 305.791C205.124 306.208 207.206 306.466 209.305 306.717C214.392 307.378 219.46 308.134 224.526 308.943C225.655 309.115 225.655 309.115 226.806 309.29C233.151 310.323 236.967 311.789 240.837 316.985C242.17 319.653 242.095 322.127 241.564 324.981C239.952 328.573 237.858 331.846 235.748 335.158C235.091 336.204 234.434 337.25 233.777 338.296C232.704 340.001 231.628 341.704 230.546 343.403C227.633 347.981 224.794 352.6 221.981 357.239C218.165 363.534 214.315 369.806 210.431 376.059C210.065 376.65 209.698 377.241 209.32 377.849C208.978 378.397 208.637 378.944 208.285 379.507C207.584 380.651 206.92 381.816 206.27 382.989C204.946 385.002 203.398 386.369 201.582 387.953C194.996 393.803 188.875 400.142 182.681 406.399C179.875 405.25 177.97 403.353 175.865 401.241C175.48 400.86 175.095 400.479 174.698 400.087C173.407 398.809 172.122 397.526 170.837 396.243C169.913 395.326 168.989 394.409 168.064 393.492C165.552 390.999 163.045 388.501 160.539 386.002C158.972 384.439 157.404 382.877 155.835 381.315C150.923 376.423 146.015 371.528 141.11 366.629C135.458 360.983 129.796 355.347 124.126 349.719C119.738 345.363 115.36 340.999 110.987 336.628C108.378 334.021 105.765 331.417 103.144 328.822C100.675 326.377 98.2166 323.921 95.7657 321.458C94.8688 320.56 93.9681 319.665 93.0634 318.775C85.924 311.743 80.2411 304.795 80 294.268C80.1723 282.875 87.6504 275.76 95.2185 268.261C96.1648 267.315 97.1107 266.369 98.0562 265.422C100.613 262.865 103.177 260.313 105.742 257.764C108.426 255.094 111.103 252.418 113.781 249.742C118.849 244.682 123.922 239.626 128.997 234.573C134.776 228.818 140.549 223.057 146.322 217.295C158.192 205.448 170.071 193.608 181.954 181.773Z" fill="#F4606B"/>
<path d="M307.716 83.6355C313.374 87.358 317.985 92.2556 322.733 97.0339C323.65 97.9516 324.568 98.869 325.486 99.7861C327.964 102.264 330.437 104.746 332.91 107.229C335.5 109.828 338.094 112.422 340.687 115.017C345.592 119.927 350.493 124.839 355.392 129.754C360.973 135.351 366.558 140.943 372.143 146.536C383.627 158.035 395.105 169.539 406.58 181.046C405.181 184.079 403.13 186.248 400.827 188.625C400.393 189.076 399.958 189.526 399.51 189.991C389.711 200.08 380.362 208.713 367.947 215.514C364.402 217.483 360.966 219.631 357.511 221.755C356.138 222.587 354.765 223.419 353.391 224.251C350.405 226.068 347.438 227.913 344.48 229.777C343.704 230.266 342.929 230.754 342.129 231.258C340.65 232.192 339.172 233.129 337.697 234.069C324.694 242.279 324.694 242.279 318.62 241.383C314.943 240.104 313.153 238.343 311.276 234.87C310.107 232.21 309.673 229.472 309.215 226.617C309.098 225.936 308.982 225.256 308.861 224.555C307.614 217.124 306.559 209.662 305.483 202.205C303.856 190.959 301.967 179.761 300.052 168.56C298.036 156.757 296.276 144.928 294.631 133.068C293.248 134.45 293.416 136.838 293.165 138.69C293.021 139.738 292.877 140.786 292.732 141.834C292.619 142.667 292.619 142.667 292.503 143.517C291.292 152.407 289.979 161.263 288.406 170.097C287.011 177.937 285.824 185.79 284.73 193.678C283.985 199.006 283.111 204.272 282.065 209.55C281.451 212.806 280.953 216.072 280.455 219.347C277.846 236.051 277.846 236.051 273.549 239.929C270.245 241.897 267.122 241.95 263.372 241.383C260.719 240.331 258.406 238.881 256.012 237.339C254.985 236.705 254.985 236.705 253.938 236.058C251.742 234.698 249.561 233.316 247.379 231.932C245.92 231.023 244.459 230.115 242.998 229.209C240.072 227.392 237.152 225.566 234.237 223.731C229.478 220.738 224.696 217.781 219.91 214.831C218.746 214.112 217.585 213.388 216.428 212.66C215.266 211.946 214.087 211.261 212.89 210.608C205.572 206.416 200.02 200.154 194.176 194.177C193.057 193.043 191.938 191.911 190.818 190.779C188.098 188.027 185.386 185.267 182.681 182.5C183.834 179.674 185.758 177.762 187.886 175.647C188.465 175.063 188.465 175.063 189.056 174.467C190.35 173.163 191.65 171.865 192.95 170.566C193.879 169.633 194.808 168.699 195.737 167.765C198.261 165.227 200.79 162.695 203.321 160.164C204.902 158.581 206.482 156.998 208.062 155.414C213.575 149.888 219.092 144.365 224.612 138.846C229.754 133.704 234.889 128.554 240.02 123.401C244.427 118.975 248.84 114.554 253.257 110.138C255.894 107.501 258.529 104.862 261.158 102.217C263.633 99.7286 266.114 97.247 268.601 94.7707C269.511 93.8625 270.418 92.9518 271.323 92.0384C272.562 90.788 273.81 89.547 275.06 88.3078C275.589 87.7677 275.589 87.7677 276.128 87.2167C284.012 79.487 298.319 77.6786 307.716 83.6355Z" fill="#D71F27"/>
<path d="M953.578 268.008C957.133 271.169 960.113 274.789 962.625 278.828C962.625 279.488 962.625 280.148 962.625 280.828C963.285 280.148 963.945 279.467 964.625 278.766C965.623 277.784 966.623 276.805 967.625 275.828C968.172 275.274 968.718 274.72 969.281 274.149C979.459 264.445 992.448 260.322 1006.25 260.578C1016.57 261.342 1024.52 264.432 1032.31 271.141C1040.67 280.857 1043.8 291.504 1043.74 304.199C1043.74 305.028 1043.74 305.858 1043.74 306.713C1043.74 309.445 1043.73 312.178 1043.72 314.91C1043.72 316.809 1043.72 318.707 1043.72 320.606C1043.71 325.595 1043.7 330.585 1043.69 335.574C1043.68 340.669 1043.68 345.763 1043.67 350.858C1043.66 360.848 1043.65 370.838 1043.62 380.828C1033.06 380.828 1022.51 380.828 1011.62 380.828C1011.6 377.491 1011.6 377.491 1011.58 374.086C1011.53 366.71 1011.46 359.334 1011.39 351.958C1011.34 347.489 1011.31 343.02 1011.28 338.551C1011.25 334.232 1011.21 329.914 1011.16 325.596C1011.15 323.954 1011.13 322.312 1011.13 320.669C1011.09 312.237 1010.97 304.721 1007.62 296.828C1007.29 295.838 1006.97 294.848 1006.62 293.828C1001.12 290.088 994.276 289.331 987.859 290.293C980.995 291.937 976.617 295.075 972.625 300.828C970.56 304.958 970.32 308.744 970.306 313.281C970.296 314.013 970.286 314.745 970.276 315.5C970.245 317.907 970.228 320.315 970.211 322.723C970.192 324.397 970.173 326.071 970.152 327.746C970.101 332.143 970.061 336.541 970.024 340.939C969.977 346.22 969.915 351.502 969.856 356.783C969.768 364.798 969.698 372.813 969.625 380.828C958.735 380.828 947.845 380.828 936.625 380.828C936.569 372.738 936.569 372.738 936.512 364.484C936.481 361.057 936.45 357.63 936.416 354.203C936.362 348.77 936.311 343.336 936.279 337.902C936.252 333.519 936.212 329.136 936.162 324.753C936.145 323.085 936.134 321.417 936.127 319.749C936.118 317.403 936.09 315.058 936.057 312.713C936.059 312.031 936.06 311.349 936.062 310.647C935.938 304.246 934.304 298.974 930.375 293.953C925.73 290.364 921.444 289.599 915.688 289.891C909.163 290.735 904.671 293.621 900.25 298.391C897.09 303.131 896.324 306.562 896.306 312.259C896.291 313.372 896.291 313.372 896.276 314.507C896.245 316.953 896.228 319.398 896.211 321.844C896.192 323.542 896.173 325.24 896.152 326.938C896.101 331.403 896.061 335.868 896.024 340.334C895.977 345.693 895.915 351.053 895.856 356.413C895.768 364.551 895.698 372.69 895.625 380.828C884.735 380.828 873.845 380.828 862.625 380.828C862.625 341.888 862.625 302.948 862.625 262.828C872.855 262.828 883.085 262.828 893.625 262.828C894.285 267.118 894.945 271.408 895.625 275.828C896.584 274.776 896.584 274.776 897.562 273.703C912.166 259.182 936.452 255.569 953.578 268.008Z" fill="#D71F27"/>
<path d="M1351.75 269.301C1354.24 271.33 1356.46 273.451 1358.62 275.828C1359.12 269.393 1359.12 269.393 1359.62 262.828C1370.18 262.828 1380.74 262.828 1391.62 262.828C1391.62 301.768 1391.62 340.708 1391.62 380.828C1380.73 380.828 1369.84 380.828 1358.62 380.828C1358.29 376.868 1357.96 372.908 1357.62 368.828C1356.55 369.859 1355.48 370.891 1354.37 371.953C1344.34 380.691 1332.63 384.375 1319.48 384.078C1304.93 382.805 1293.39 376.56 1283.62 365.828C1271.18 349.001 1267.44 329.562 1270.29 308.961C1272.91 293.041 1280.99 279.747 1293.44 269.516C1310.47 257.478 1334.79 257.032 1351.75 269.301ZM1310.62 297.828C1309.94 298.55 1309.26 299.272 1308.56 300.016C1302.45 308.89 1300.7 318.816 1302.25 329.391C1304.35 339.076 1308.46 346.122 1316.62 351.828C1323.3 356.054 1330.94 355.673 1338.62 354.828C1345.56 352.786 1350.76 348.925 1354.62 342.828C1360.12 332.395 1361.55 320.913 1358.5 309.391C1355.73 301.568 1350.15 294.854 1342.86 290.859C1331.7 285.953 1318.47 288.365 1310.62 297.828Z" fill="#D71F27"/>
<path d="M1208 260.516C1209.11 260.523 1209.11 260.523 1210.25 260.531C1221.36 260.767 1230.54 264.315 1238.31 272.391C1249.33 285.798 1248.92 303.1 1248.82 319.5C1248.82 321.276 1248.81 323.053 1248.81 324.829C1248.8 329.465 1248.78 334.101 1248.76 338.737C1248.74 343.484 1248.73 348.23 1248.72 352.977C1248.7 362.26 1248.67 371.544 1248.62 380.828C1237.73 380.828 1226.85 380.828 1215.62 380.828C1215.62 378.512 1215.61 376.197 1215.6 373.811C1215.56 366.135 1215.51 358.46 1215.44 350.785C1215.4 346.134 1215.37 341.483 1215.35 336.832C1215.34 332.339 1215.3 327.846 1215.26 323.352C1215.24 321.643 1215.23 319.934 1215.23 318.225C1215.57 305.364 1215.57 305.364 1210.62 293.828C1205.54 289.628 1200.03 289.197 1193.59 289.449C1186.25 290.388 1181.4 293.3 1176.82 299.047C1173.86 303.465 1173.32 306.978 1173.31 312.259C1173.29 313.372 1173.29 313.372 1173.28 314.507C1173.24 316.952 1173.23 319.398 1173.21 321.844C1173.19 323.542 1173.17 325.24 1173.15 326.938C1173.1 331.403 1173.06 335.868 1173.02 340.334C1172.98 345.693 1172.92 351.053 1172.86 356.413C1172.77 364.551 1172.7 372.69 1172.62 380.828C1161.73 380.828 1150.85 380.828 1139.62 380.828C1139.62 341.888 1139.62 302.948 1139.62 262.828C1149.85 262.828 1160.09 262.828 1170.62 262.828C1171.29 267.118 1171.94 271.408 1172.62 275.828C1173.9 274.611 1175.18 273.394 1176.5 272.141C1185.63 264.046 1195.88 260.42 1208 260.516Z" fill="#D71F27"/>
<path d="M721.625 262.828C732.515 262.828 743.405 262.828 754.625 262.828C754.651 268.126 754.677 273.424 754.703 278.883C754.728 282.255 754.755 285.628 754.785 289C754.833 294.343 754.877 299.687 754.896 305.03C754.911 309.342 754.946 313.654 754.993 317.966C755.008 319.604 755.016 321.243 755.017 322.881C754.816 337.362 754.816 337.362 761.433 349.782C767.007 354.893 771.911 355.18 779.324 355.105C785.49 354.587 789.034 352.348 793.437 348.141C799.468 339.009 799.095 329.485 799.137 318.98C799.154 317.357 799.172 315.733 799.191 314.109C799.238 309.863 799.268 305.617 799.295 301.37C799.33 296.26 799.387 291.151 799.44 286.041C799.518 278.304 799.569 270.566 799.625 262.828C810.185 262.828 820.745 262.828 831.625 262.828C831.625 301.768 831.625 340.708 831.625 380.828C821.395 380.828 811.165 380.828 800.625 380.828C800.295 376.538 799.965 372.248 799.625 367.828C798.202 369.21 796.779 370.592 795.312 372.016C785.6 380.728 774.085 384.356 761.125 384.012C749.253 383.14 739.833 379.085 731.602 370.359C723.418 359.879 721.446 346.599 721.511 333.668C721.511 332.896 721.511 332.125 721.511 331.329C721.512 328.808 721.519 326.287 721.527 323.766C721.529 322.006 721.531 320.246 721.532 318.486C721.535 313.877 721.545 309.267 721.556 304.657C721.567 299.945 721.571 295.232 721.576 290.52C721.587 281.289 721.604 272.059 721.625 262.828Z" fill="#D71F27"/>
<path d="M593.625 225.828C604.845 225.828 616.065 225.828 627.625 225.828C627.625 267.078 627.625 308.328 627.625 350.828C650.725 350.828 673.825 350.828 697.625 350.828C697.625 360.728 697.625 370.628 697.625 380.828C663.305 380.828 628.985 380.828 593.625 380.828C593.625 329.678 593.625 278.528 593.625 225.828Z" fill="#D71F27"/>
<path d="M1075.62 262.828C1086.19 262.828 1096.74 262.828 1107.62 262.828C1107.62 301.768 1107.62 340.708 1107.62 380.828C1097.06 380.828 1086.51 380.828 1075.62 380.828C1075.62 341.888 1075.62 302.948 1075.62 262.828Z" fill="#D71F27"/>
<path d="M1104.62 207.828C1108.15 210.522 1110.19 213.163 1111.32 217.484C1112.1 223.49 1111.74 227.63 1108.62 232.828C1104.69 237.366 1101.97 239.637 1095.95 240.129C1094.55 240.143 1093.15 240.147 1091.75 240.141C1091.06 240.157 1090.36 240.173 1089.64 240.189C1084.15 240.195 1080.12 239.046 1075.98 235.363C1071.53 229.751 1070.97 224.838 1071.62 217.828C1073.41 212.658 1076.19 209.962 1080.62 206.828C1088.04 203.291 1097.54 203.598 1104.62 207.828Z" fill="#D71F27"/>
</svg>
