<svg width="1834" height="720" viewBox="0 0 1834 720" fill="none" xmlns="http://www.w3.org/2000/svg">
<mask id="mask0_435_41" style="mask-type:luminance" maskUnits="userSpaceOnUse" x="109" y="109" width="501" height="501">
<path d="M109.984 109.984H609.516V609.516H109.984V109.984Z" fill="white"/>
</mask>
<g mask="url(#mask0_435_41)">
<mask id="mask1_435_41" style="mask-type:luminance" maskUnits="userSpaceOnUse" x="109" y="109" width="501" height="501">
<path d="M526.017 210.471C572.986 267.81 564.554 352.381 507.214 399.326C459.407 438.473 392.708 439.125 344.625 405.041C378.099 423.571 420.871 420.998 452.282 395.281C493.409 361.593 499.458 300.926 465.77 259.799C432.086 218.651 371.418 212.623 330.292 246.307C298.88 272.025 287.941 313.448 299.494 349.915C275.567 296.056 289.355 230.794 337.162 191.647C394.501 144.702 479.052 153.135 526.017 210.471ZM359.761 109.984C402.996 109.984 443.681 120.989 479.158 140.319C461.873 134.184 443.26 130.832 423.864 130.832C332.547 130.832 258.512 204.866 258.512 296.183C258.512 387.5 332.547 461.535 423.864 461.535C515.184 461.535 589.216 387.5 589.216 296.183C589.216 277.339 586.054 259.23 580.235 242.344C598.914 277.339 609.516 317.307 609.516 359.741C609.516 497.686 497.686 609.516 359.741 609.516C221.793 609.516 109.984 497.709 109.984 359.761C109.984 221.814 221.814 109.984 359.761 109.984Z" fill="white"/>
</mask>
<g mask="url(#mask1_435_41)">
<path d="M109.984 109.984V609.516H609.516V109.984H109.984Z" fill="url(#paint0_linear_435_41)"/>
</g>
</g>
<mask id="mask2_435_41" style="mask-type:luminance" maskUnits="userSpaceOnUse" x="719" y="246" width="1006" height="227">
<path d="M1724.02 246.833H719.499V472.666H1724.02V246.833Z" fill="white"/>
</mask>
<g mask="url(#mask2_435_41)">
<path d="M807.147 418.831C791.704 418.831 777.962 415.818 765.927 409.804C753.886 403.789 744.445 394.652 737.606 382.399C730.778 370.135 727.364 354.714 727.364 336.138C727.364 320.098 730.669 305.955 737.285 293.702C743.895 281.438 753.107 271.889 764.918 265.061C776.724 258.221 790.283 254.795 805.589 254.795C823.874 254.795 838.917 258.221 850.728 265.061C862.535 271.889 871.293 281.507 877.01 293.908C882.738 306.316 885.602 320.912 885.602 337.696C885.602 354.503 882.555 368.961 876.46 381.07C870.365 393.169 861.481 402.489 849.812 409.025C838.155 415.561 823.931 418.831 807.147 418.831ZM807.147 383.843C814.125 383.843 819.658 379.615 823.737 371.149C827.827 362.671 829.877 351.524 829.877 337.696C829.877 328.639 829.018 320.476 827.311 313.201C825.616 305.915 822.981 300.084 819.406 295.696C815.843 291.313 811.163 289.12 805.36 289.12C800.915 288.971 796.94 290.901 793.445 294.917C789.945 298.938 787.224 304.512 785.288 311.643C783.364 318.764 782.401 326.926 782.401 336.138C782.401 350.71 784.738 362.304 789.413 370.92C794.098 379.535 800.01 383.843 807.147 383.843Z" fill="#1B8FD2"/>
<path d="M894.498 259.034H966.927C979.862 259.034 990.379 260.226 998.479 262.609C1006.57 264.98 1012.81 268.286 1017.2 272.53C1021.58 276.764 1024.59 281.627 1026.23 287.126C1027.86 292.614 1028.68 298.554 1028.68 304.953C1028.68 313.568 1025.59 320.774 1019.42 326.56C1013.25 332.351 1005.56 335.92 996.348 337.26C1001.55 338.011 1006.35 339.872 1010.74 342.851C1015.12 345.818 1018.69 349.565 1021.44 354.102C1024.19 358.627 1025.56 363.559 1025.56 368.903C1025.56 373.669 1025.96 377.393 1026.78 380.062C1027.6 382.737 1028.98 384.072 1030.9 384.072C1034.32 384.072 1036.03 381.689 1036.03 376.923V369.568H1050.97V381.827C1050.97 387.921 1049.96 393.719 1047.95 399.218C1045.94 404.717 1042.6 409.139 1037.91 412.484C1033.24 415.83 1026.74 417.503 1018.41 417.503C1003.85 417.503 993.008 413.859 985.876 406.573C978.739 399.286 975.176 389.113 975.176 376.052C975.176 369.213 974.695 364.011 973.732 360.448C972.77 356.874 970.719 354.388 967.592 352.979C964.475 351.558 959.578 350.848 952.904 350.848V385.401H966.492V414.822H894.498V385.401H906.986V288.226H894.498V259.034ZM952.904 287.997V325.895H962.917C969.453 325.895 974.655 324.377 978.521 321.336C982.382 318.282 984.318 313.786 984.318 307.84C984.318 301.304 982.565 296.36 979.071 293.015C975.588 289.669 970.576 287.997 964.04 287.997H952.904Z" fill="#1B8FD2"/>
<path d="M1233.25 414.822H1143.89V385.63H1165.06L1160.39 370.462H1114.7L1110 385.63H1127.39V414.822H1056.52V385.63H1071.67L1101.75 287.791H1092.63V259.034H1178.21L1217.67 385.63H1233.25V414.822ZM1122.95 343.722H1152.14L1137.43 295.581L1122.95 343.722Z" fill="#1B8FD2"/>
<path d="M1242.15 414.822V358.661H1283.6C1283.6 363.261 1284.6 367.013 1286.6 369.912C1288.62 372.816 1291.15 375.044 1294.19 376.602C1297.24 378.16 1300.33 379.237 1303.44 379.833C1306.56 380.429 1309.31 380.795 1311.69 380.933C1314.36 380.933 1317.15 380.675 1320.03 380.154C1322.93 379.638 1325.42 378.561 1327.5 376.923C1329.59 375.291 1330.64 372.913 1330.64 369.797C1330.64 367.277 1329.07 365.203 1325.95 363.565C1322.83 361.932 1318.74 360.374 1313.69 358.89C1308.65 357.395 1303.08 355.797 1296.98 354.102C1290.89 352.394 1284.79 350.275 1278.7 347.755C1272.62 345.223 1267.05 341.98 1261.99 338.039C1256.94 334.098 1252.85 329.309 1249.74 323.673C1246.62 318.025 1245.06 311.111 1245.06 302.936C1245.06 294.613 1246.76 287.441 1250.17 281.421C1253.59 275.406 1258.01 270.468 1263.44 266.619C1268.86 262.758 1274.62 259.859 1280.71 257.935C1286.81 255.998 1292.61 255.025 1298.11 255.025C1307.45 255.025 1316.44 256.737 1325.05 260.157C1333.68 263.566 1340.23 269.431 1344.69 277.755L1346.91 259.034H1385.25V314.966H1344.89C1344.89 306.66 1342.11 300.273 1336.53 295.81C1330.97 291.354 1324.25 289.12 1316.37 289.12C1313.1 289.12 1309.71 290.128 1306.22 292.144C1302.73 294.149 1300.99 297.082 1300.99 300.943C1300.99 304.196 1302.59 306.98 1305.78 309.283C1308.97 311.592 1313.21 313.717 1318.48 315.653C1323.76 317.578 1329.52 319.548 1335.75 321.565C1342 323.57 1348.24 325.907 1354.47 328.576C1360.72 331.251 1366.48 334.442 1371.75 338.154C1377.03 341.866 1381.27 346.397 1384.47 351.741C1387.66 357.092 1389.25 363.485 1389.25 370.92C1389.25 379.535 1387.47 386.89 1383.89 392.985C1380.33 399.08 1375.62 403.949 1369.76 407.581C1363.89 411.219 1357.5 413.894 1350.58 415.601C1343.67 417.308 1336.88 418.167 1330.18 418.167C1318.89 418.167 1309.39 416.013 1301.66 411.705C1293.92 407.398 1287.91 402.718 1283.6 397.66L1281.15 414.822H1242.15Z" fill="#1040A6"/>
<path d="M1400.38 259.034H1472.6C1485.52 259.034 1496.03 260.306 1504.13 262.838C1512.22 265.358 1518.43 268.853 1522.74 273.309C1527.04 277.755 1530.01 282.841 1531.65 288.57C1533.28 294.286 1534.1 300.336 1534.1 306.717C1534.1 316.524 1531.43 324.698 1526.08 331.234C1520.73 337.776 1513.64 342.679 1504.79 345.944C1495.96 349.215 1486.19 350.848 1475.49 350.848H1458.56V385.401H1472.14V414.822H1400.38V385.401H1412.87V288.226H1400.38V259.034ZM1458.56 287.997V326.789H1468.59C1475.13 326.789 1480.4 325.196 1484.4 322C1488.42 318.809 1490.43 314.232 1490.43 308.275C1490.43 301.756 1488.6 296.744 1484.95 293.244C1481.31 289.75 1476.23 287.997 1469.69 287.997H1458.56Z" fill="#1040A6"/>
<path d="M1717.51 414.822H1628.15V385.63H1649.32L1644.65 370.462H1598.96L1594.26 385.63H1611.65V414.822H1540.78V385.63H1555.93L1586.01 287.791H1576.89V259.034H1662.48L1701.93 385.63H1717.51V414.822ZM1607.21 343.722H1636.4L1621.69 295.581L1607.21 343.722Z" fill="#1040A6"/>
</g>
<defs>
<linearGradient id="paint0_linear_435_41" x1="359.75" y1="109.984" x2="359.75" y2="609.516" gradientUnits="userSpaceOnUse">
<stop stop-color="#1B8FD2"/>
<stop offset="1" stop-color="#1040A6"/>
</linearGradient>
</defs>
</svg>
