<svg width="1929" height="538" viewBox="0 0 1929 538" fill="none" xmlns="http://www.w3.org/2000/svg">
<path d="M594.298 91L592.523 91.0011C568.327 90.9407 538.814 98.9101 523.273 105.181C507.732 111.452 495.756 119.747 488.146 125.453L485.824 127.215C474.026 135.874 463.102 146.048 454.109 157.644L452.446 159.859C445.7 168.476 440.043 177.59 434.494 187.02C432.895 189.748 431.295 192.476 429.684 195.197C423.181 206.152 416.725 217.135 410.299 228.136C404.834 237.492 399.339 246.83 393.83 256.159C388.375 265.392 382.935 274.633 377.547 283.906C372.59 292.439 367.59 300.946 362.571 309.443C356.75 319.295 350.937 329.151 345.186 339.044C341.494 345.396 337.798 351.746 334.09 358.089C333.204 359.605 332.318 361.121 331.433 362.638C328.911 366.962 326.389 371.286 323.813 375.579L322.242 378.181C321.275 379.792 320.307 381.402 319.338 383.011C317.264 386.389 317.794 385.556 315.215 390.164C313.819 392.658 312.879 393.5 313.869 396.234C317.849 407.225 345.39 442.738 350.682 445.186C355.973 447.635 365.307 447.823 370.143 444.394C377.82 438.95 383.068 429.476 383.958 427.87L384.001 427.793L385.167 425.7C386.377 423.504 387.607 421.348 388.907 419.203C393.197 412.388 393.197 412.388 401.229 398.381C404.25 393.112 407.284 387.85 410.342 382.602C414.263 375.88 418.17 369.151 422.045 362.402C426.422 354.778 430.823 347.171 435.298 339.605C437.55 335.801 439.811 332.003 441.996 328.16C444.643 323.475 447.326 318.822 450.096 314.209C457.012 302.709 463.804 291.138 470.44 279.474L471.304 277.954C472.447 275.943 473.59 273.932 474.732 271.92C478.377 265.467 482.105 259.089 486.002 252.788C487.136 250.956 488.263 249.122 489.376 247.277L490.963 244.632C492.612 241.891 494.248 239.146 495.819 236.36C499.48 229.801 503.132 223.319 507.564 217.244L508.823 215.558C522 197.861 537.927 182.403 566.828 172.61C595.322 164.857 621.78 170.161 640.098 179.955C654.554 187.683 675.105 202.397 677.547 201.989C680.004 201.579 683.4 198.88 684.06 198.317C684.72 197.753 705.602 181.669 707.669 179.955C708.431 179.33 720.288 169.186 725.172 165.265C728.944 162.237 732.093 158.736 732.093 157.104C732.093 155.472 719.881 137.926 685.475 115.686C651.069 93.4458 612.293 91.0329 594.298 91Z" fill="url(#paint0_linear_367_9)"/>
<path d="M172.67 98.3556C159.279 98.4172 145.89 98.5177 132.5 98.6516C132.5 100.284 132.5 100.284 133.667 102.362L135.299 104.976C137.766 108.949 140.291 112.883 142.829 116.81C144.419 119.268 146.001 121.723 147.45 124.269C150.273 129.521 153.457 134.501 156.703 139.497C165.059 152.353 173.393 165.228 181.23 178.411C183.882 182.874 186.588 187.303 189.315 191.721C190.039 192.893 190.763 194.066 191.486 195.239L192.378 196.686C198.278 206.259 204.179 215.833 210.18 225.343C217.819 237.427 225.327 249.583 232.636 261.871C236.635 268.628 240.702 275.331 244.898 281.968C247.6 286.239 250.298 290.511 252.938 294.821C254.396 297.209 255.854 299.596 257.326 301.976C263.227 311.495 269.075 321.043 274.866 330.629L275.253 331.269C277.61 335.172 279.967 339.074 282.352 342.959L282.785 343.662C284.727 346.816 286.669 349.969 288.569 353.149L289.868 355.346C290.686 356.729 291.504 358.113 292.32 359.497L293.581 361.649L294.804 363.711C296.14 365.983 297.906 368.51 299.208 370.304C300.794 367.694 302.578 364.817 304.07 362.347L305.508 359.876C306.346 358.441 307.183 357.006 308.018 355.569C308.618 354.538 309.218 353.507 309.819 352.476C311.082 350.31 312.346 348.144 313.608 345.977C316.357 341.258 319.111 336.541 321.868 331.826L323.613 328.842C326.773 323.434 329.934 318.027 333.121 312.635C337.413 305.377 341.689 298.109 345.914 290.811C346.469 289.853 347.023 288.894 347.578 287.935L349.178 285.182L350.666 282.602L351.986 280.319L353.124 278.193L354.244 276.132C354.752 274.113 354.752 274.113 353.797 272.086L352.31 270.032L351.044 267.958L349.68 265.738L348.126 263.208C347.282 261.834 346.438 260.461 345.595 259.087C342.925 254.74 340.255 250.393 337.583 246.047L337.516 245.936C332.312 237.472 327.108 229.008 321.955 220.512C314.171 207.67 306.369 194.837 298.404 182.107C292.395 172.511 282.156 155.885 276.579 146.03L275.478 144.251L274.152 142.086C272.919 140.09 271.691 138.09 270.47 136.087C269.714 134.847 268.958 133.606 268.202 132.367C266.302 129.272 264.386 126.188 262.581 123.037C259.568 117.683 256.617 112.577 252.429 108.037C241.068 97.9627 230.924 97.8408 216.203 98.0476C213.335 98.0895 210.467 98.1067 207.599 98.1141C202.174 98.1267 196.749 98.1634 191.325 98.2206C185.106 98.2863 178.888 98.3262 172.67 98.3556Z" fill="url(#paint1_linear_367_9)"/>
<path d="M495.187 292.985C494.91 292.985 495.048 293.284 494.78 293.284L493.797 294.82L492.49 297.1L490.922 299.828C489.968 301.5 489.013 303.171 488.052 304.839C482.987 313.627 478.014 322.464 473.104 331.34L473.028 331.477C470.077 336.813 467.128 342.146 464.01 347.387C460.501 353.258 464.027 347.273 460.705 353.252C460.102 354.337 452.59 367.344 451.988 368.429C451.117 369.99 450.246 371.552 449.381 373.116L448.575 374.576C451.988 368.429 449.536 372.872 448.204 375.389C460.09 386.02 512.283 446.003 574.562 446.003C636.842 446.003 693.423 423.56 732.5 385.37C729.244 382.521 725.49 379.626 721.92 376.884C716.987 373.122 712.119 369.3 707.313 365.377C700.139 359.517 692.865 353.794 685.536 348.129C682.726 345.962 680.012 343.695 677.293 341.414C675.405 339.806 670.221 335.714 668.999 334.9C650.275 354.192 622.595 377.406 565.607 368.429C504.142 354.556 495.354 293.942 495.187 292.985Z" fill="#00317B"/>
<path d="M983.5 183.375L910.5 365.5H872.25L799.25 183.375H833.25C836.917 183.375 839.875 184.25 842.125 186C844.375 187.667 846.083 189.833 847.25 192.5L882.5 290C884.167 294.25 885.792 298.917 887.375 304C888.958 309 890.458 314.25 891.875 319.75C893.042 314.25 894.333 309 895.75 304C897.25 298.917 898.833 294.25 900.5 290L935.5 192.5C936.417 190.167 938.042 188.083 940.375 186.25C942.792 184.333 945.75 183.375 949.25 183.375H983.5ZM1032.98 235.875V365.5H994.234V235.875H1032.98ZM1036.98 200.375C1036.98 203.458 1036.36 206.375 1035.11 209.125C1033.86 211.792 1032.15 214.167 1029.98 216.25C1027.82 218.25 1025.28 219.875 1022.36 221.125C1019.53 222.292 1016.48 222.875 1013.23 222.875C1010.07 222.875 1007.11 222.292 1004.36 221.125C1001.61 219.875 999.151 218.25 996.984 216.25C994.901 214.167 993.234 211.792 991.984 209.125C990.818 206.375 990.234 203.458 990.234 200.375C990.234 197.208 990.818 194.25 991.984 191.5C993.234 188.75 994.901 186.333 996.984 184.25C999.151 182.167 1001.61 180.542 1004.36 179.375C1007.11 178.208 1010.07 177.625 1013.23 177.625C1016.48 177.625 1019.53 178.208 1022.36 179.375C1025.28 180.542 1027.82 182.167 1029.98 184.25C1032.15 186.333 1033.86 188.75 1035.11 191.5C1036.36 194.25 1036.98 197.208 1036.98 200.375ZM1140.63 285.125C1140.63 282.042 1140.22 279.042 1139.38 276.125C1138.63 273.208 1137.34 270.625 1135.51 268.375C1133.76 266.042 1131.43 264.167 1128.51 262.75C1125.59 261.333 1122.05 260.625 1117.88 260.625C1110.55 260.625 1104.8 262.75 1100.63 267C1096.47 271.167 1093.72 277.208 1092.38 285.125H1140.63ZM1091.88 307.625C1093.13 318.458 1096.43 326.333 1101.76 331.25C1107.09 336.083 1113.97 338.5 1122.38 338.5C1126.88 338.5 1130.76 337.958 1134.01 336.875C1137.26 335.792 1140.13 334.583 1142.63 333.25C1145.22 331.917 1147.55 330.708 1149.63 329.625C1151.8 328.542 1154.05 328 1156.38 328C1159.47 328 1161.8 329.125 1163.38 331.375L1174.63 345.25C1170.63 349.833 1166.3 353.583 1161.63 356.5C1157.05 359.333 1152.3 361.583 1147.38 363.25C1142.55 364.833 1137.68 365.917 1132.76 366.5C1127.93 367.167 1123.3 367.5 1118.88 367.5C1109.8 367.5 1101.26 366.042 1093.26 363.125C1085.34 360.125 1078.38 355.708 1072.38 349.875C1066.47 344.042 1061.76 336.792 1058.26 328.125C1054.84 319.458 1053.13 309.375 1053.13 297.875C1053.13 289.208 1054.59 281 1057.51 273.25C1060.51 265.5 1064.76 258.708 1070.26 252.875C1075.84 247.042 1082.55 242.417 1090.38 239C1098.3 235.583 1107.22 233.875 1117.13 233.875C1125.72 233.875 1133.55 235.208 1140.63 237.875C1147.8 240.542 1153.93 244.417 1159.01 249.5C1164.18 254.583 1168.18 260.833 1171.01 268.25C1173.93 275.583 1175.38 283.917 1175.38 293.25C1175.38 296.167 1175.26 298.542 1175.01 300.375C1174.76 302.208 1174.3 303.667 1173.63 304.75C1172.97 305.833 1172.05 306.583 1170.88 307C1169.8 307.417 1168.38 307.625 1166.63 307.625H1091.88ZM1239.44 367.5C1233.27 367.5 1227.82 366.625 1223.07 364.875C1218.4 363.042 1214.44 360.5 1211.19 357.25C1208.02 353.917 1205.61 349.917 1203.94 345.25C1202.27 340.583 1201.44 335.375 1201.44 329.625V262.625H1190.44C1188.44 262.625 1186.73 262 1185.32 260.75C1183.9 259.417 1183.19 257.5 1183.19 255V239.875L1203.82 235.875L1211.44 204.25C1212.44 200.25 1215.27 198.25 1219.94 198.25H1240.19V236.125H1272.32V262.625H1240.19V327C1240.19 330 1240.9 332.5 1242.32 334.5C1243.82 336.417 1245.94 337.375 1248.69 337.375C1250.11 337.375 1251.27 337.25 1252.19 337C1253.19 336.667 1254.02 336.333 1254.69 336C1255.44 335.583 1256.11 335.25 1256.69 335C1257.36 334.667 1258.11 334.5 1258.94 334.5C1260.11 334.5 1261.02 334.792 1261.69 335.375C1262.44 335.875 1263.19 336.708 1263.94 337.875L1275.69 356.25C1270.69 360 1265.07 362.833 1258.82 364.75C1252.57 366.583 1246.11 367.5 1239.44 367.5Z" fill="#001366"/>
<path d="M1416.26 318.375C1417.26 318.375 1418.26 318.583 1419.26 319C1420.26 319.333 1421.22 319.958 1422.14 320.875L1438.89 338.5C1431.56 348.083 1422.35 355.333 1411.26 360.25C1400.26 365.083 1387.22 367.5 1372.14 367.5C1358.31 367.5 1345.89 365.167 1334.89 360.5C1323.97 355.75 1314.68 349.25 1307.01 341C1299.43 332.667 1293.6 322.833 1289.51 311.5C1285.43 300.083 1283.39 287.708 1283.39 274.375C1283.39 260.792 1285.6 248.333 1290.01 237C1294.43 225.583 1300.64 215.75 1308.64 207.5C1316.64 199.25 1326.22 192.833 1337.39 188.25C1348.56 183.667 1360.85 181.375 1374.26 181.375C1381.1 181.375 1387.51 182 1393.51 183.25C1399.6 184.417 1405.26 186.083 1410.51 188.25C1415.76 190.333 1420.6 192.875 1425.01 195.875C1429.43 198.875 1433.35 202.125 1436.76 205.625L1422.51 224.75C1421.6 225.917 1420.51 227 1419.26 228C1418.01 228.917 1416.26 229.375 1414.01 229.375C1412.51 229.375 1411.1 229.042 1409.76 228.375C1408.43 227.708 1407.01 226.917 1405.51 226C1404.01 225 1402.35 223.958 1400.51 222.875C1398.76 221.708 1396.64 220.667 1394.14 219.75C1391.72 218.75 1388.85 217.917 1385.51 217.25C1382.26 216.583 1378.43 216.25 1374.01 216.25C1367.01 216.25 1360.6 217.542 1354.76 220.125C1349.01 222.708 1344.01 226.5 1339.76 231.5C1335.6 236.417 1332.35 242.5 1330.01 249.75C1327.76 256.917 1326.64 265.125 1326.64 274.375C1326.64 283.708 1327.89 292 1330.39 299.25C1332.97 306.5 1336.43 312.625 1340.76 317.625C1345.18 322.542 1350.31 326.292 1356.14 328.875C1361.97 331.458 1368.22 332.75 1374.89 332.75C1378.72 332.75 1382.22 332.583 1385.39 332.25C1388.56 331.833 1391.51 331.208 1394.26 330.375C1397.01 329.458 1399.6 328.292 1402.01 326.875C1404.43 325.375 1406.89 323.5 1409.39 321.25C1410.39 320.417 1411.47 319.75 1412.64 319.25C1413.81 318.667 1415.01 318.375 1416.26 318.375ZM1519.71 312.75C1511.96 313.083 1505.58 313.75 1500.58 314.75C1495.58 315.75 1491.62 317 1488.71 318.5C1485.79 320 1483.75 321.708 1482.58 323.625C1481.5 325.542 1480.96 327.625 1480.96 329.875C1480.96 334.292 1482.17 337.417 1484.58 339.25C1487 341 1490.54 341.875 1495.21 341.875C1500.21 341.875 1504.58 341 1508.33 339.25C1512.08 337.5 1515.87 334.667 1519.71 330.75V312.75ZM1449.96 253.875C1457.79 246.958 1466.46 241.833 1475.96 238.5C1485.54 235.083 1495.79 233.375 1506.71 233.375C1514.54 233.375 1521.58 234.667 1527.83 237.25C1534.17 239.75 1539.5 243.292 1543.83 247.875C1548.25 252.375 1551.62 257.75 1553.96 264C1556.29 270.25 1557.46 277.083 1557.46 284.5V365.5H1539.71C1536.04 365.5 1533.25 365 1531.33 364C1529.5 363 1527.96 360.917 1526.71 357.75L1523.96 350.625C1520.71 353.375 1517.58 355.792 1514.58 357.875C1511.58 359.958 1508.46 361.75 1505.21 363.25C1502.04 364.667 1498.62 365.708 1494.96 366.375C1491.37 367.125 1487.37 367.5 1482.96 367.5C1477.04 367.5 1471.67 366.75 1466.83 365.25C1462 363.667 1457.87 361.375 1454.46 358.375C1451.12 355.375 1448.54 351.667 1446.71 347.25C1444.87 342.75 1443.96 337.583 1443.96 331.75C1443.96 327.083 1445.12 322.375 1447.46 317.625C1449.79 312.792 1453.83 308.417 1459.58 304.5C1465.33 300.5 1473.08 297.167 1482.83 294.5C1492.58 291.833 1504.87 290.333 1519.71 290V284.5C1519.71 276.917 1518.12 271.458 1514.96 268.125C1511.87 264.708 1507.46 263 1501.71 263C1497.12 263 1493.37 263.5 1490.46 264.5C1487.54 265.5 1484.92 266.625 1482.58 267.875C1480.33 269.125 1478.12 270.25 1475.96 271.25C1473.79 272.25 1471.21 272.75 1468.21 272.75C1465.54 272.75 1463.29 272.083 1461.46 270.75C1459.62 269.417 1458.12 267.833 1456.96 266L1449.96 253.875ZM1618.48 255.875C1622.48 248.875 1627.06 243.375 1632.23 239.375C1637.48 235.375 1643.48 233.375 1650.23 233.375C1656.06 233.375 1660.81 234.75 1664.48 237.5L1661.98 266C1661.56 267.833 1660.85 269.083 1659.85 269.75C1658.93 270.417 1657.64 270.75 1655.98 270.75C1655.31 270.75 1654.43 270.708 1653.35 270.625C1652.27 270.542 1651.14 270.458 1649.98 270.375C1648.81 270.208 1647.6 270.083 1646.35 270C1645.18 269.833 1644.1 269.75 1643.1 269.75C1637.43 269.75 1632.89 271.25 1629.48 274.25C1626.14 277.25 1623.31 281.417 1620.98 286.75V365.5H1582.23V235.875H1605.23C1607.14 235.875 1608.73 236.042 1609.98 236.375C1611.31 236.708 1612.39 237.25 1613.23 238C1614.14 238.667 1614.81 239.583 1615.23 240.75C1615.73 241.917 1616.14 243.333 1616.48 245L1618.48 255.875ZM1756.11 285.125C1756.11 282.042 1755.7 279.042 1754.86 276.125C1754.11 273.208 1752.82 270.625 1750.99 268.375C1749.24 266.042 1746.9 264.167 1743.99 262.75C1741.07 261.333 1737.53 260.625 1733.36 260.625C1726.03 260.625 1720.28 262.75 1716.11 267C1711.95 271.167 1709.2 277.208 1707.86 285.125H1756.11ZM1707.36 307.625C1708.61 318.458 1711.9 326.333 1717.24 331.25C1722.57 336.083 1729.45 338.5 1737.86 338.5C1742.36 338.5 1746.24 337.958 1749.49 336.875C1752.74 335.792 1755.61 334.583 1758.11 333.25C1760.7 331.917 1763.03 330.708 1765.11 329.625C1767.28 328.542 1769.53 328 1771.86 328C1774.95 328 1777.28 329.125 1778.86 331.375L1790.11 345.25C1786.11 349.833 1781.78 353.583 1777.11 356.5C1772.53 359.333 1767.78 361.583 1762.86 363.25C1758.03 364.833 1753.15 365.917 1748.24 366.5C1743.4 367.167 1738.78 367.5 1734.36 367.5C1725.28 367.5 1716.74 366.042 1708.74 363.125C1700.82 360.125 1693.86 355.708 1687.86 349.875C1681.95 344.042 1677.24 336.792 1673.74 328.125C1670.32 319.458 1668.61 309.375 1668.61 297.875C1668.61 289.208 1670.07 281 1672.99 273.25C1675.99 265.5 1680.24 258.708 1685.74 252.875C1691.32 247.042 1698.03 242.417 1705.86 239C1713.78 235.583 1722.7 233.875 1732.61 233.875C1741.2 233.875 1749.03 235.208 1756.11 237.875C1763.28 240.542 1769.4 244.417 1774.49 249.5C1779.65 254.583 1783.65 260.833 1786.49 268.25C1789.4 275.583 1790.86 283.917 1790.86 293.25C1790.86 296.167 1790.74 298.542 1790.49 300.375C1790.24 302.208 1789.78 303.667 1789.11 304.75C1788.45 305.833 1787.53 306.583 1786.36 307C1785.28 307.417 1783.86 307.625 1782.11 307.625H1707.36Z" fill="#029EE8"/>
<defs>
<linearGradient id="paint0_linear_367_9" x1="732.5" y1="219.536" x2="309.682" y2="391.827" gradientUnits="userSpaceOnUse">
<stop offset="0.00480769" stop-color="#00317B"/>
<stop offset="1" stop-color="#017EDA"/>
</linearGradient>
<linearGradient id="paint1_linear_367_9" x1="200.478" y1="98.3444" x2="332.053" y2="350.256" gradientUnits="userSpaceOnUse">
<stop stop-color="#0FC1EF"/>
<stop offset="1" stop-color="#017AD9"/>
</linearGradient>
</defs>
</svg>
