<svg width="870" height="371" viewBox="0 0 870 371" fill="none" xmlns="http://www.w3.org/2000/svg">
<path d="M206.35 70.7C223.465 70.7 237.34 56.2164 237.34 38.35C237.34 20.4836 223.465 6 206.35 6C189.235 6 175.36 20.4836 175.36 38.35C175.36 56.2164 189.235 70.7 206.35 70.7Z" fill="#05B836"/>
<path d="M120.23 364.2C143.05 364.2 161.55 344.885 161.55 321.06C161.55 297.234 143.05 277.92 120.23 277.92C97.4095 277.92 78.9099 297.234 78.9099 321.06C78.9099 344.885 97.4095 364.2 120.23 364.2Z" fill="#05B836"/>
<path d="M296.37 304.6C307.78 304.6 317.03 294.943 317.03 283.03C317.03 271.117 307.78 261.46 296.37 261.46C284.96 261.46 275.71 271.117 275.71 283.03C275.71 294.943 284.96 304.6 296.37 304.6Z" fill="#05B836"/>
<path d="M248.96 38.35C248.96 49.5 244.87 59.59 238.35 67.4C256.83 75.25 273.07 87.55 285.97 103.02C293.35 99.3 301.45 95.92 308.84 93.78C293.69 70.06 273.06 50.51 248.84 37.04C248.85 37.48 248.96 37.9 248.96 38.35Z" fill="#05B836"/>
<path d="M118.4 81.6898C138.79 66.6998 163.58 57.8098 190.38 57.6998C188.21 45.2498 188.27 30.4198 190.54 18.0898C184.21 17.3198 177.8 16.8198 171.27 16.8198C140.31 16.8198 111.44 25.8698 86.6699 41.3398C101.93 49.6098 113.55 64.1498 118.4 81.6898Z" fill="#05B836"/>
<path d="M266.23 294.81C245.19 311.22 219.17 321.06 190.88 321.06C172.15 321.06 154.43 316.68 138.44 309.03C137.34 323.91 133.75 340.59 128.55 355.88C142.2 359.69 156.47 361.91 171.27 361.91C215.34 361.91 255.28 343.79 284.91 314.44C276.29 311 269.48 303.84 266.23 294.81Z" fill="#05B836"/>
<path d="M300.5 121.54C311.91 121.54 321.16 111.883 321.16 99.9699C321.16 88.0571 311.91 78.3999 300.5 78.3999C289.09 78.3999 279.84 88.0571 279.84 99.9699C279.84 111.883 289.09 121.54 300.5 121.54Z" fill="#05B836"/>
<path d="M75.16 137.37C69.85 140.1 63.95 141.76 57.65 141.76C43.89 141.76 31.74 134.47 24.53 123.4C22.72 122.96 20.72 122.66 19.02 122.13C10.64 142.79 6 165.51 6 189.36C6 243.61 30.03 291.95 67.53 323.59C67.49 322.73 67.28 321.92 67.28 321.05C67.28 300.66 78.03 283.02 93.8 273.44C75.65 250.63 64.72 221.33 64.72 189.36C64.73 170.86 68.55 153.34 75.16 137.37Z" fill="#05B836"/>
<path d="M57.65 46.0498C29.13 46.0498 6 70.1898 6 99.9698C6 129.75 29.12 153.89 57.65 153.89C86.18 153.89 109.3 129.75 109.3 99.9698C109.3 70.1898 86.17 46.0498 57.65 46.0498ZM57.65 135.7C38.79 135.7 23.43 119.68 23.43 99.9798C23.43 80.2798 38.78 64.2498 57.65 64.2498C76.52 64.2498 91.87 80.2798 91.87 99.9798C91.87 119.68 76.51 135.7 57.65 135.7Z" fill="#05B836"/>
<path d="M150.88 247.09H120.44L163.42 132.24H193.86L236.77 247.09H206.33L199.22 226.65H158L150.88 247.09ZM167.24 200.23H190.05L178.61 167.46L167.24 200.23Z" fill="#1B8FD2"/>
<path d="M244.83 247.09V132.24H273.87V247.09H244.83Z" fill="#1B8FD2"/>
<path d="M288.55 247.09V132.24H328.67C338.11 132.24 346.29 133.89 353.2 137.18C360.12 140.47 365.45 145.14 369.19 151.19C372.93 157.24 374.8 164.42 374.8 172.74C374.8 181.06 372.93 188.27 369.19 194.37C365.45 200.47 360.15 205.18 353.31 208.5C346.47 211.82 338.37 213.48 329.03 213.48H317.59V247.09H288.55ZM317.59 187.06H325.8C332.06 187.06 336.84 185.83 340.14 183.38C343.44 180.93 345.09 177.38 345.09 172.74C345.09 168.2 343.43 164.71 340.1 162.29C336.78 159.87 332.01 158.65 325.8 158.65H317.59V187.06Z" fill="#1040A6"/>
<path d="M444.18 249.39C435.77 249.39 428.01 247.9 420.89 244.91C413.77 241.92 407.59 237.74 402.33 232.35C397.07 226.96 393 220.65 390.12 213.4C387.24 206.15 385.79 198.24 385.79 189.66C385.79 181.08 387.23 173.17 390.12 165.92C393 158.67 397.07 152.36 402.33 146.97C407.59 141.58 413.77 137.4 420.89 134.41C428.01 131.42 435.76 129.93 444.18 129.93C452.64 129.93 460.41 131.42 467.5 134.41C474.59 137.4 480.74 141.58 485.95 146.97C491.16 152.36 495.21 158.67 498.09 165.92C500.97 173.17 502.42 181.08 502.42 189.66C502.42 198.24 500.98 206.15 498.09 213.4C495.21 220.65 491.16 226.96 485.95 232.35C480.74 237.74 474.6 241.92 467.5 244.91C460.41 247.89 452.64 249.39 444.18 249.39ZM444.18 222.97C448.24 222.97 452.01 222.13 455.47 220.44C458.94 218.76 461.96 216.39 464.53 213.36C467.1 210.33 469.1 206.79 470.54 202.76C471.98 198.73 472.7 194.36 472.7 189.67C472.7 184.98 471.98 180.61 470.54 176.58C469.1 172.55 467.09 169.01 464.53 165.98C461.96 162.94 458.94 160.58 455.47 158.9C452 157.22 448.23 156.37 444.18 156.37C440.12 156.37 436.35 157.21 432.85 158.9C429.35 160.59 426.31 162.95 423.72 165.98C421.13 169.02 419.11 172.55 417.67 176.58C416.23 180.61 415.51 184.98 415.51 189.67C415.51 194.36 416.23 198.73 417.67 202.76C419.11 206.79 421.13 210.33 423.72 213.36C426.31 216.4 429.35 218.76 432.85 220.44C436.35 222.12 440.13 222.97 444.18 222.97Z" fill="#1040A6"/>
<path d="M634.65 247.09H607.44L588.66 181.62L569.81 247.09H542.6L506.81 132.24H537.32L556.17 198.24L575.02 132.24H602.23L621.01 198.09L639.79 132.24H670.3L634.65 247.09Z" fill="#1040A6"/>
<path d="M678.37 247.09V132.24H751.71V158.66H707.41V176.42H748.78V202.84H707.41V220.68H752.44V247.1H678.37V247.09Z" fill="#1040A6"/>
<path d="M863.78 247.09H831.66L810.68 209.11H795.42V247.09H766.38V132.24H812.88C822.41 132.24 830.53 133.74 837.23 136.76C843.93 139.77 849.05 144.15 852.6 149.89C856.15 155.63 857.92 162.56 857.92 170.68C857.92 178.29 856.36 184.85 853.23 190.36C850.1 195.87 845.58 200.21 839.66 203.38L863.78 247.09ZM795.42 185.76H810.6C816.42 185.76 820.81 184.62 823.77 182.35C826.73 180.08 828.21 176.7 828.21 172.2C828.21 167.7 826.73 164.32 823.77 162.05C820.81 159.78 816.42 158.64 810.6 158.64H795.42V185.76Z" fill="#1040A6"/>
<path d="M334.46 303.1L344.22 273.62H349.58L359.34 303.1H354.42L349.66 287.1C349.18 285.5 348.713 283.887 348.26 282.26C347.807 280.607 347.353 278.953 346.9 277.3H346.74C346.313 278.98 345.86 280.633 345.38 282.26C344.927 283.887 344.46 285.5 343.98 287.1L339.22 303.1H334.46ZM339.98 294.74V291.06H353.74V294.74H339.98ZM363.223 303.1V273.62H367.863V303.1H363.223ZM384.151 312.02V281.06H387.911L388.311 283.5H388.391C389.378 282.7 390.444 282.007 391.591 281.42C392.738 280.833 393.938 280.54 395.191 280.54C397.031 280.54 398.604 281.007 399.911 281.94C401.218 282.873 402.204 284.18 402.871 285.86C403.538 287.513 403.871 289.473 403.871 291.74C403.871 294.247 403.418 296.393 402.511 298.18C401.631 299.967 400.471 301.327 399.031 302.26C397.591 303.193 396.044 303.66 394.391 303.66C393.431 303.66 392.458 303.447 391.471 303.02C390.484 302.567 389.538 301.94 388.631 301.14L388.751 304.9V312.02H384.151ZM393.511 299.78C394.578 299.78 395.524 299.473 396.351 298.86C397.204 298.247 397.871 297.353 398.351 296.18C398.858 294.98 399.111 293.527 399.111 291.82C399.111 290.273 398.924 288.953 398.551 287.86C398.204 286.74 397.658 285.887 396.911 285.3C396.164 284.687 395.178 284.38 393.951 284.38C393.098 284.38 392.244 284.607 391.391 285.06C390.564 285.487 389.684 286.153 388.751 287.06V297.82C389.604 298.54 390.444 299.047 391.271 299.34C392.098 299.633 392.844 299.78 393.511 299.78ZM418.186 303.66C416.373 303.66 414.666 303.207 413.066 302.3C411.493 301.367 410.213 300.047 409.226 298.34C408.266 296.607 407.786 294.527 407.786 292.1C407.786 289.647 408.266 287.567 409.226 285.86C410.213 284.127 411.493 282.807 413.066 281.9C414.666 280.993 416.373 280.54 418.186 280.54C419.52 280.54 420.813 280.807 422.066 281.34C423.32 281.847 424.426 282.593 425.386 283.58C426.346 284.567 427.106 285.78 427.666 287.22C428.226 288.633 428.506 290.26 428.506 292.1C428.506 294.527 428.013 296.607 427.026 298.34C426.066 300.047 424.8 301.367 423.226 302.3C421.68 303.207 420 303.66 418.186 303.66ZM418.186 299.82C419.333 299.82 420.32 299.5 421.146 298.86C422 298.22 422.653 297.327 423.106 296.18C423.56 295.007 423.786 293.647 423.786 292.1C423.786 290.553 423.56 289.207 423.106 288.06C422.653 286.887 422 285.98 421.146 285.34C420.32 284.673 419.333 284.34 418.186 284.34C417.013 284.34 416 284.673 415.146 285.34C414.32 285.98 413.68 286.887 413.226 288.06C412.773 289.207 412.546 290.553 412.546 292.1C412.546 293.647 412.773 295.007 413.226 296.18C413.68 297.327 414.32 298.22 415.146 298.86C416 299.5 417.013 299.82 418.186 299.82ZM437.085 303.1L431.165 281.06H435.805L438.725 292.98C438.938 294.047 439.138 295.1 439.325 296.14C439.512 297.153 439.712 298.193 439.925 299.26H440.125C440.338 298.193 440.552 297.153 440.765 296.14C441.005 295.1 441.258 294.047 441.525 292.98L444.645 281.06H448.885L452.045 292.98C452.312 294.047 452.565 295.1 452.805 296.14C453.045 297.153 453.285 298.193 453.525 299.26H453.725C453.938 298.193 454.138 297.153 454.325 296.14C454.538 295.1 454.752 294.047 454.965 292.98L457.805 281.06H462.165L456.445 303.1H450.925L448.125 292.22C447.858 291.18 447.618 290.14 447.405 289.1C447.192 288.06 446.965 286.98 446.725 285.86H446.525C446.285 286.98 446.058 288.073 445.845 289.14C445.658 290.18 445.432 291.22 445.165 292.26L442.445 303.1H437.085ZM475.538 303.66C473.538 303.66 471.725 303.207 470.098 302.3C468.472 301.367 467.178 300.047 466.218 298.34C465.258 296.607 464.778 294.527 464.778 292.1C464.778 290.313 465.058 288.713 465.618 287.3C466.178 285.86 466.938 284.647 467.898 283.66C468.858 282.647 469.938 281.873 471.138 281.34C472.338 280.807 473.565 280.54 474.818 280.54C476.765 280.54 478.405 280.98 479.738 281.86C481.072 282.713 482.085 283.927 482.778 285.5C483.472 287.047 483.818 288.86 483.818 290.94C483.818 291.393 483.792 291.833 483.738 292.26C483.712 292.66 483.658 293.007 483.578 293.3H469.298C469.432 294.687 469.792 295.887 470.378 296.9C470.992 297.887 471.778 298.66 472.738 299.22C473.725 299.753 474.845 300.02 476.098 300.02C477.085 300.02 478.005 299.873 478.858 299.58C479.712 299.287 480.538 298.887 481.338 298.38L482.938 301.3C481.925 301.967 480.792 302.527 479.538 302.98C478.312 303.433 476.978 303.66 475.538 303.66ZM469.258 290.1H479.818C479.818 288.233 479.392 286.78 478.538 285.74C477.712 284.7 476.498 284.18 474.898 284.18C473.992 284.18 473.138 284.407 472.338 284.86C471.538 285.313 470.858 285.98 470.298 286.86C469.765 287.74 469.418 288.82 469.258 290.1ZM488.995 303.1V281.06H492.755L493.155 285.02H493.235C494.035 283.607 494.981 282.513 496.075 281.74C497.168 280.94 498.315 280.54 499.515 280.54C500.048 280.54 500.501 280.58 500.875 280.66C501.248 280.74 501.608 280.847 501.955 280.98L501.155 285.02C500.755 284.887 500.395 284.793 500.075 284.74C499.755 284.687 499.368 284.66 498.915 284.66C498.035 284.66 497.101 285.02 496.115 285.74C495.128 286.433 494.288 287.66 493.595 289.42V303.1H488.995ZM510.931 303.66C509.438 303.66 507.945 303.367 506.451 302.78C504.985 302.193 503.718 301.46 502.651 300.58L504.851 297.58C505.811 298.353 506.785 298.98 507.771 299.46C508.785 299.913 509.878 300.14 511.051 300.14C512.358 300.14 513.318 299.86 513.931 299.3C514.571 298.713 514.891 298.007 514.891 297.18C514.891 296.513 514.651 295.953 514.171 295.5C513.718 295.047 513.118 294.66 512.371 294.34C511.625 293.993 510.851 293.673 510.051 293.38C509.065 293.007 508.091 292.567 507.131 292.06C506.198 291.527 505.425 290.86 504.811 290.06C504.198 289.233 503.891 288.207 503.891 286.98C503.891 285.727 504.198 284.62 504.811 283.66C505.451 282.7 506.358 281.94 507.531 281.38C508.705 280.82 510.105 280.54 511.731 280.54C513.198 280.54 514.531 280.793 515.731 281.3C516.958 281.807 517.998 282.42 518.851 283.14L516.731 285.98C515.958 285.42 515.171 284.967 514.371 284.62C513.571 284.247 512.731 284.06 511.851 284.06C510.625 284.06 509.718 284.327 509.131 284.86C508.545 285.367 508.251 286.007 508.251 286.78C508.251 287.393 508.465 287.9 508.891 288.3C509.318 288.7 509.878 289.047 510.571 289.34C511.291 289.633 512.051 289.94 512.851 290.26C513.625 290.527 514.385 290.847 515.131 291.22C515.905 291.567 516.598 291.993 517.211 292.5C517.825 292.98 518.318 293.58 518.691 294.3C519.091 294.993 519.291 295.86 519.291 296.9C519.291 298.127 518.971 299.26 518.331 300.3C517.691 301.34 516.758 302.167 515.531 302.78C514.305 303.367 512.771 303.66 510.931 303.66ZM534.214 312.3C533.628 312.3 533.108 312.26 532.654 312.18C532.228 312.1 531.814 311.993 531.414 311.86L532.294 308.26C532.508 308.313 532.761 308.38 533.054 308.46C533.348 308.54 533.641 308.58 533.934 308.58C535.134 308.58 536.094 308.18 536.814 307.38C537.534 306.607 538.094 305.633 538.494 304.46L538.974 302.94L530.254 281.06H534.934L538.974 292.42C539.321 293.407 539.654 294.433 539.974 295.5C540.321 296.54 540.668 297.58 541.014 298.62H541.214C541.481 297.607 541.761 296.567 542.054 295.5C542.348 294.433 542.641 293.407 542.934 292.42L546.494 281.06H550.934L542.854 304.42C542.294 305.993 541.628 307.367 540.854 308.54C540.108 309.74 539.201 310.66 538.134 311.3C537.068 311.967 535.761 312.3 534.214 312.3ZM563.382 303.66C561.568 303.66 559.862 303.207 558.262 302.3C556.688 301.367 555.408 300.047 554.422 298.34C553.462 296.607 552.982 294.527 552.982 292.1C552.982 289.647 553.462 287.567 554.422 285.86C555.408 284.127 556.688 282.807 558.262 281.9C559.862 280.993 561.568 280.54 563.382 280.54C564.715 280.54 566.008 280.807 567.262 281.34C568.515 281.847 569.622 282.593 570.582 283.58C571.542 284.567 572.302 285.78 572.862 287.22C573.422 288.633 573.702 290.26 573.702 292.1C573.702 294.527 573.208 296.607 572.222 298.34C571.262 300.047 569.995 301.367 568.422 302.3C566.875 303.207 565.195 303.66 563.382 303.66ZM563.382 299.82C564.528 299.82 565.515 299.5 566.342 298.86C567.195 298.22 567.848 297.327 568.302 296.18C568.755 295.007 568.982 293.647 568.982 292.1C568.982 290.553 568.755 289.207 568.302 288.06C567.848 286.887 567.195 285.98 566.342 285.34C565.515 284.673 564.528 284.34 563.382 284.34C562.208 284.34 561.195 284.673 560.342 285.34C559.515 285.98 558.875 286.887 558.422 288.06C557.968 289.207 557.742 290.553 557.742 292.1C557.742 293.647 557.968 295.007 558.422 296.18C558.875 297.327 559.515 298.22 560.342 298.86C561.195 299.5 562.208 299.82 563.382 299.82ZM585.631 303.66C583.284 303.66 581.564 302.9 580.471 301.38C579.378 299.86 578.831 297.713 578.831 294.94V281.06H583.471V294.38C583.471 296.247 583.764 297.593 584.351 298.42C584.938 299.247 585.871 299.66 587.151 299.66C588.164 299.66 589.071 299.407 589.871 298.9C590.671 298.367 591.524 297.527 592.431 296.38V281.06H597.071V303.1H593.271L592.911 299.78H592.791C591.778 300.927 590.711 301.86 589.591 302.58C588.471 303.3 587.151 303.66 585.631 303.66ZM603.956 303.1V281.06H607.716L608.116 285.02H608.196C608.996 283.607 609.942 282.513 611.036 281.74C612.129 280.94 613.276 280.54 614.476 280.54C615.009 280.54 615.462 280.58 615.836 280.66C616.209 280.74 616.569 280.847 616.916 280.98L616.116 285.02C615.716 284.887 615.356 284.793 615.036 284.74C614.716 284.687 614.329 284.66 613.876 284.66C612.996 284.66 612.062 285.02 611.076 285.74C610.089 286.433 609.249 287.66 608.556 289.42V303.1H603.956ZM632.827 303.1L626.907 281.06H631.547L634.467 292.98C634.68 294.047 634.88 295.1 635.067 296.14C635.254 297.153 635.454 298.193 635.667 299.26H635.867C636.08 298.193 636.294 297.153 636.507 296.14C636.747 295.1 637 294.047 637.267 292.98L640.387 281.06H644.627L647.787 292.98C648.054 294.047 648.307 295.1 648.547 296.14C648.787 297.153 649.027 298.193 649.267 299.26H649.467C649.68 298.193 649.88 297.153 650.067 296.14C650.28 295.1 650.494 294.047 650.707 292.98L653.547 281.06H657.907L652.187 303.1H646.667L643.867 292.22C643.6 291.18 643.36 290.14 643.147 289.1C642.934 288.06 642.707 286.98 642.467 285.86H642.267C642.027 286.98 641.8 288.073 641.587 289.14C641.4 290.18 641.174 291.22 640.907 292.26L638.187 303.1H632.827ZM670.921 303.66C669.107 303.66 667.401 303.207 665.801 302.3C664.227 301.367 662.947 300.047 661.961 298.34C661.001 296.607 660.521 294.527 660.521 292.1C660.521 289.647 661.001 287.567 661.961 285.86C662.947 284.127 664.227 282.807 665.801 281.9C667.401 280.993 669.107 280.54 670.921 280.54C672.254 280.54 673.547 280.807 674.801 281.34C676.054 281.847 677.161 282.593 678.121 283.58C679.081 284.567 679.841 285.78 680.401 287.22C680.961 288.633 681.241 290.26 681.241 292.1C681.241 294.527 680.747 296.607 679.761 298.34C678.801 300.047 677.534 301.367 675.961 302.3C674.414 303.207 672.734 303.66 670.921 303.66ZM670.921 299.82C672.067 299.82 673.054 299.5 673.881 298.86C674.734 298.22 675.387 297.327 675.841 296.18C676.294 295.007 676.521 293.647 676.521 292.1C676.521 290.553 676.294 289.207 675.841 288.06C675.387 286.887 674.734 285.98 673.881 285.34C673.054 284.673 672.067 284.34 670.921 284.34C669.747 284.34 668.734 284.673 667.881 285.34C667.054 285.98 666.414 286.887 665.961 288.06C665.507 289.207 665.281 290.553 665.281 292.1C665.281 293.647 665.507 295.007 665.961 296.18C666.414 297.327 667.054 298.22 667.881 298.86C668.734 299.5 669.747 299.82 670.921 299.82ZM686.69 303.1V281.06H690.45L690.85 285.02H690.93C691.73 283.607 692.677 282.513 693.77 281.74C694.863 280.94 696.01 280.54 697.21 280.54C697.743 280.54 698.197 280.58 698.57 280.66C698.943 280.74 699.303 280.847 699.65 280.98L698.85 285.02C698.45 284.887 698.09 284.793 697.77 284.74C697.45 284.687 697.063 284.66 696.61 284.66C695.73 284.66 694.797 285.02 693.81 285.74C692.823 286.433 691.983 287.66 691.29 289.42V303.1H686.69ZM703.057 303.1V271.22H707.577V291.74H707.737L716.257 281.06H721.377L713.937 290.06L722.217 303.1H717.217L711.257 293.14L707.577 297.38V303.1H703.057Z" fill="white"/>
</svg>
