<svg width="1200" height="600" viewBox="0 0 1200 600" fill="none" xmlns="http://www.w3.org/2000/svg">
<path d="M381.89 185.6C399.005 185.6 412.88 171.116 412.88 153.25C412.88 135.384 399.005 120.9 381.89 120.9C364.775 120.9 350.9 135.384 350.9 153.25C350.9 171.116 364.775 185.6 381.89 185.6Z" fill="#05B836"/>
<path d="M295.77 479.1C318.59 479.1 337.09 459.786 337.09 435.96C337.09 412.134 318.59 392.82 295.77 392.82C272.95 392.82 254.45 412.134 254.45 435.96C254.45 459.786 272.95 479.1 295.77 479.1Z" fill="#05B836"/>
<path d="M471.91 419.5C483.32 419.5 492.57 409.843 492.57 397.93C492.57 386.017 483.32 376.36 471.91 376.36C460.5 376.36 451.25 386.017 451.25 397.93C451.25 409.843 460.5 419.5 471.91 419.5Z" fill="#05B836"/>
<path d="M424.5 153.25C424.5 164.4 420.41 174.49 413.89 182.3C432.37 190.15 448.61 202.45 461.51 217.92C468.89 214.2 476.99 210.82 484.38 208.68C469.23 184.96 448.6 165.41 424.38 151.94C424.39 152.38 424.5 152.8 424.5 153.25Z" fill="#05B836"/>
<path d="M293.94 196.59C314.33 181.6 339.12 172.71 365.92 172.6C363.75 160.15 363.81 145.32 366.08 132.99C359.75 132.22 353.34 131.72 346.81 131.72C315.85 131.72 286.98 140.77 262.21 156.24C277.47 164.51 289.09 179.05 293.94 196.59Z" fill="#05B836"/>
<path d="M441.77 409.71C420.73 426.12 394.71 435.96 366.42 435.96C347.69 435.96 329.97 431.58 313.98 423.93C312.88 438.81 309.29 455.49 304.09 470.78C317.74 474.59 332.01 476.81 346.81 476.81C390.88 476.81 430.82 458.69 460.45 429.34C451.83 425.9 445.02 418.74 441.77 409.71Z" fill="#05B836"/>
<path d="M476.04 236.44C487.45 236.44 496.7 226.783 496.7 214.87C496.7 202.957 487.45 193.3 476.04 193.3C464.63 193.3 455.38 202.957 455.38 214.87C455.38 226.783 464.63 236.44 476.04 236.44Z" fill="#05B836"/>
<path d="M250.7 252.27C245.39 255 239.49 256.66 233.19 256.66C219.43 256.66 207.28 249.37 200.07 238.3C198.26 237.86 196.26 237.56 194.56 237.03C186.18 257.69 181.54 280.41 181.54 304.26C181.54 358.51 205.57 406.85 243.07 438.49C243.03 437.63 242.82 436.82 242.82 435.95C242.82 415.56 253.57 397.92 269.34 388.34C251.19 365.53 240.26 336.23 240.26 304.26C240.27 285.76 244.09 268.24 250.7 252.27Z" fill="#05B836"/>
<path d="M233.19 160.95C204.67 160.95 181.54 185.09 181.54 214.87C181.54 244.65 204.66 268.79 233.19 268.79C261.72 268.79 284.84 244.65 284.84 214.87C284.84 185.09 261.71 160.95 233.19 160.95ZM233.19 250.6C214.33 250.6 198.97 234.58 198.97 214.88C198.97 195.18 214.32 179.15 233.19 179.15C252.06 179.15 267.41 195.18 267.41 214.88C267.41 234.58 252.05 250.6 233.19 250.6Z" fill="#05B836"/>
<path d="M326.42 361.99H295.98L338.96 247.14H369.4L412.31 361.99H381.87L374.76 341.55H333.54L326.42 361.99ZM342.78 315.13H365.59L354.15 282.36L342.78 315.13Z" fill="#1B8FD2"/>
<path d="M420.37 361.99V247.14H449.41V361.99H420.37Z" fill="#1B8FD2"/>
<path d="M464.09 361.99V247.14H504.21C513.65 247.14 521.83 248.79 528.74 252.08C535.66 255.37 540.99 260.04 544.73 266.09C548.47 272.14 550.34 279.32 550.34 287.64C550.34 295.96 548.47 303.17 544.73 309.27C540.99 315.37 535.69 320.08 528.85 323.4C522.01 326.72 513.91 328.38 504.57 328.38H493.13V361.99H464.09ZM493.13 301.96H501.34C507.6 301.96 512.38 300.73 515.68 298.28C518.98 295.83 520.63 292.28 520.63 287.64C520.63 283.1 518.97 279.61 515.64 277.19C512.32 274.77 507.55 273.55 501.34 273.55H493.13V301.96Z" fill="#1040A6"/>
<path d="M619.72 364.29C611.31 364.29 603.55 362.8 596.43 359.81C589.31 356.82 583.13 352.64 577.87 347.25C572.61 341.86 568.54 335.55 565.66 328.3C562.78 321.05 561.33 313.14 561.33 304.56C561.33 295.98 562.77 288.07 565.66 280.82C568.54 273.57 572.61 267.26 577.87 261.87C583.13 256.48 589.31 252.3 596.43 249.31C603.55 246.32 611.3 244.83 619.72 244.83C628.18 244.83 635.95 246.32 643.04 249.31C650.13 252.3 656.28 256.48 661.49 261.87C666.7 267.26 670.75 273.57 673.63 280.82C676.51 288.07 677.96 295.98 677.96 304.56C677.96 313.14 676.52 321.05 673.63 328.3C670.75 335.55 666.7 341.86 661.49 347.25C656.28 352.64 650.14 356.82 643.04 359.81C635.95 362.79 628.18 364.29 619.72 364.29ZM619.72 337.87C623.78 337.87 627.55 337.03 631.01 335.34C634.48 333.66 637.5 331.29 640.07 328.26C642.64 325.23 644.64 321.69 646.08 317.66C647.52 313.63 648.24 309.26 648.24 304.57C648.24 299.88 647.52 295.51 646.08 291.48C644.64 287.45 642.63 283.91 640.07 280.88C637.5 277.84 634.48 275.48 631.01 273.8C627.54 272.12 623.77 271.27 619.72 271.27C615.66 271.27 611.89 272.11 608.39 273.8C604.89 275.49 601.85 277.85 599.26 280.88C596.67 283.92 594.65 287.45 593.21 291.48C591.77 295.51 591.05 299.88 591.05 304.57C591.05 309.26 591.77 313.63 593.21 317.66C594.65 321.69 596.67 325.23 599.26 328.26C601.85 331.3 604.89 333.66 608.39 335.34C611.89 337.02 615.67 337.87 619.72 337.87Z" fill="#1040A6"/>
<path d="M810.19 361.99H782.98L764.2 296.52L745.35 361.99H718.14L682.35 247.14H712.86L731.71 313.14L750.56 247.14H777.77L796.55 312.99L815.33 247.14H845.84L810.19 361.99Z" fill="#1040A6"/>
<path d="M853.91 361.99V247.14H927.25V273.56H882.95V291.32H924.32V317.74H882.95V335.58H927.98V362H853.91V361.99Z" fill="#1040A6"/>
<path d="M1039.32 361.99H1007.2L986.22 324.01H970.96V361.99H941.92V247.14H988.42C997.95 247.14 1006.07 248.64 1012.77 251.66C1019.47 254.67 1024.59 259.05 1028.14 264.79C1031.69 270.53 1033.46 277.46 1033.46 285.58C1033.46 293.19 1031.9 299.75 1028.77 305.26C1025.64 310.77 1021.12 315.11 1015.2 318.28L1039.32 361.99ZM970.96 300.66H986.14C991.96 300.66 996.35 299.52 999.31 297.25C1002.27 294.98 1003.75 291.6 1003.75 287.1C1003.75 282.6 1002.27 279.22 999.31 276.95C996.35 274.68 991.96 273.54 986.14 273.54H970.96V300.66Z" fill="#1040A6"/>
<path d="M510 418L519.76 388.52H525.12L534.88 418H529.96L525.2 402C524.72 400.4 524.253 398.787 523.8 397.16C523.347 395.507 522.893 393.853 522.44 392.2H522.28C521.853 393.88 521.4 395.533 520.92 397.16C520.467 398.787 520 400.4 519.52 402L514.76 418H510ZM515.52 409.64V405.96H529.28V409.64H515.52ZM538.763 418V388.52H543.403V418H538.763ZM559.691 426.92V395.96H563.451L563.851 398.4H563.931C564.918 397.6 565.984 396.907 567.131 396.32C568.278 395.733 569.478 395.44 570.731 395.44C572.571 395.44 574.144 395.907 575.451 396.84C576.758 397.773 577.744 399.08 578.411 400.76C579.078 402.413 579.411 404.373 579.411 406.64C579.411 409.147 578.958 411.293 578.051 413.08C577.171 414.867 576.011 416.227 574.571 417.16C573.131 418.093 571.584 418.56 569.931 418.56C568.971 418.56 567.998 418.347 567.011 417.92C566.024 417.467 565.078 416.84 564.171 416.04L564.291 419.8V426.92H559.691ZM569.051 414.68C570.118 414.68 571.064 414.373 571.891 413.76C572.744 413.147 573.411 412.253 573.891 411.08C574.398 409.88 574.651 408.427 574.651 406.72C574.651 405.173 574.464 403.853 574.091 402.76C573.744 401.64 573.198 400.787 572.451 400.2C571.704 399.587 570.718 399.28 569.491 399.28C568.638 399.28 567.784 399.507 566.931 399.96C566.104 400.387 565.224 401.053 564.291 401.96V412.72C565.144 413.44 565.984 413.947 566.811 414.24C567.638 414.533 568.384 414.68 569.051 414.68ZM593.726 418.56C591.913 418.56 590.206 418.107 588.606 417.2C587.033 416.267 585.753 414.947 584.766 413.24C583.806 411.507 583.326 409.427 583.326 407C583.326 404.547 583.806 402.467 584.766 400.76C585.753 399.027 587.033 397.707 588.606 396.8C590.206 395.893 591.913 395.44 593.726 395.44C595.06 395.44 596.353 395.707 597.606 396.24C598.86 396.747 599.966 397.493 600.926 398.48C601.886 399.467 602.646 400.68 603.206 402.12C603.766 403.533 604.046 405.16 604.046 407C604.046 409.427 603.553 411.507 602.566 413.24C601.606 414.947 600.34 416.267 598.766 417.2C597.22 418.107 595.54 418.56 593.726 418.56ZM593.726 414.72C594.873 414.72 595.86 414.4 596.686 413.76C597.54 413.12 598.193 412.227 598.646 411.08C599.1 409.907 599.326 408.547 599.326 407C599.326 405.453 599.1 404.107 598.646 402.96C598.193 401.787 597.54 400.88 596.686 400.24C595.86 399.573 594.873 399.24 593.726 399.24C592.553 399.24 591.54 399.573 590.686 400.24C589.86 400.88 589.22 401.787 588.766 402.96C588.313 404.107 588.086 405.453 588.086 407C588.086 408.547 588.313 409.907 588.766 411.08C589.22 412.227 589.86 413.12 590.686 413.76C591.54 414.4 592.553 414.72 593.726 414.72ZM612.625 418L606.705 395.96H611.345L614.265 407.88C614.478 408.947 614.678 410 614.865 411.04C615.052 412.053 615.252 413.093 615.465 414.16H615.665C615.878 413.093 616.092 412.053 616.305 411.04C616.545 410 616.798 408.947 617.065 407.88L620.185 395.96H624.425L627.585 407.88C627.852 408.947 628.105 410 628.345 411.04C628.585 412.053 628.825 413.093 629.065 414.16H629.265C629.478 413.093 629.678 412.053 629.865 411.04C630.078 410 630.292 408.947 630.505 407.88L633.345 395.96H637.705L631.985 418H626.465L623.665 407.12C623.398 406.08 623.158 405.04 622.945 404C622.732 402.96 622.505 401.88 622.265 400.76H622.065C621.825 401.88 621.598 402.973 621.385 404.04C621.198 405.08 620.972 406.12 620.705 407.16L617.985 418H612.625ZM651.078 418.56C649.078 418.56 647.265 418.107 645.638 417.2C644.012 416.267 642.718 414.947 641.758 413.24C640.798 411.507 640.318 409.427 640.318 407C640.318 405.213 640.598 403.613 641.158 402.2C641.718 400.76 642.478 399.547 643.438 398.56C644.398 397.547 645.478 396.773 646.678 396.24C647.878 395.707 649.105 395.44 650.358 395.44C652.305 395.44 653.945 395.88 655.278 396.76C656.612 397.613 657.625 398.827 658.318 400.4C659.012 401.947 659.358 403.76 659.358 405.84C659.358 406.293 659.332 406.733 659.278 407.16C659.252 407.56 659.198 407.907 659.118 408.2H644.838C644.972 409.587 645.332 410.787 645.918 411.8C646.532 412.787 647.318 413.56 648.278 414.12C649.265 414.653 650.385 414.92 651.638 414.92C652.625 414.92 653.545 414.773 654.398 414.48C655.252 414.187 656.078 413.787 656.878 413.28L658.478 416.2C657.465 416.867 656.332 417.427 655.078 417.88C653.852 418.333 652.518 418.56 651.078 418.56ZM644.798 405H655.358C655.358 403.133 654.932 401.68 654.078 400.64C653.252 399.6 652.038 399.08 650.438 399.08C649.532 399.08 648.678 399.307 647.878 399.76C647.078 400.213 646.398 400.88 645.838 401.76C645.305 402.64 644.958 403.72 644.798 405ZM664.535 418V395.96H668.295L668.695 399.92H668.775C669.575 398.507 670.521 397.413 671.615 396.64C672.708 395.84 673.855 395.44 675.055 395.44C675.588 395.44 676.041 395.48 676.415 395.56C676.788 395.64 677.148 395.747 677.495 395.88L676.695 399.92C676.295 399.787 675.935 399.693 675.615 399.64C675.295 399.587 674.908 399.56 674.455 399.56C673.575 399.56 672.641 399.92 671.655 400.64C670.668 401.333 669.828 402.56 669.135 404.32V418H664.535ZM686.471 418.56C684.978 418.56 683.485 418.267 681.991 417.68C680.525 417.093 679.258 416.36 678.191 415.48L680.391 412.48C681.351 413.253 682.325 413.88 683.311 414.36C684.325 414.813 685.418 415.04 686.591 415.04C687.898 415.04 688.858 414.76 689.471 414.2C690.111 413.613 690.431 412.907 690.431 412.08C690.431 411.413 690.191 410.853 689.711 410.4C689.258 409.947 688.658 409.56 687.911 409.24C687.165 408.893 686.391 408.573 685.591 408.28C684.605 407.907 683.631 407.467 682.671 406.96C681.738 406.427 680.965 405.76 680.351 404.96C679.738 404.133 679.431 403.107 679.431 401.88C679.431 400.627 679.738 399.52 680.351 398.56C680.991 397.6 681.898 396.84 683.071 396.28C684.245 395.72 685.645 395.44 687.271 395.44C688.738 395.44 690.071 395.693 691.271 396.2C692.498 396.707 693.538 397.32 694.391 398.04L692.271 400.88C691.498 400.32 690.711 399.867 689.911 399.52C689.111 399.147 688.271 398.96 687.391 398.96C686.165 398.96 685.258 399.227 684.671 399.76C684.085 400.267 683.791 400.907 683.791 401.68C683.791 402.293 684.005 402.8 684.431 403.2C684.858 403.6 685.418 403.947 686.111 404.24C686.831 404.533 687.591 404.84 688.391 405.16C689.165 405.427 689.925 405.747 690.671 406.12C691.445 406.467 692.138 406.893 692.751 407.4C693.365 407.88 693.858 408.48 694.231 409.2C694.631 409.893 694.831 410.76 694.831 411.8C694.831 413.027 694.511 414.16 693.871 415.2C693.231 416.24 692.298 417.067 691.071 417.68C689.845 418.267 688.311 418.56 686.471 418.56ZM709.754 427.2C709.168 427.2 708.648 427.16 708.194 427.08C707.768 427 707.354 426.893 706.954 426.76L707.834 423.16C708.048 423.213 708.301 423.28 708.594 423.36C708.888 423.44 709.181 423.48 709.474 423.48C710.674 423.48 711.634 423.08 712.354 422.28C713.074 421.507 713.634 420.533 714.034 419.36L714.514 417.84L705.794 395.96H710.474L714.514 407.32C714.861 408.307 715.194 409.333 715.514 410.4C715.861 411.44 716.208 412.48 716.554 413.52H716.754C717.021 412.507 717.301 411.467 717.594 410.4C717.888 409.333 718.181 408.307 718.474 407.32L722.034 395.96H726.474L718.394 419.32C717.834 420.893 717.168 422.267 716.394 423.44C715.648 424.64 714.741 425.56 713.674 426.2C712.608 426.867 711.301 427.2 709.754 427.2ZM738.922 418.56C737.108 418.56 735.402 418.107 733.802 417.2C732.228 416.267 730.948 414.947 729.962 413.24C729.002 411.507 728.522 409.427 728.522 407C728.522 404.547 729.002 402.467 729.962 400.76C730.948 399.027 732.228 397.707 733.802 396.8C735.402 395.893 737.108 395.44 738.922 395.44C740.255 395.44 741.548 395.707 742.802 396.24C744.055 396.747 745.162 397.493 746.122 398.48C747.082 399.467 747.842 400.68 748.402 402.12C748.962 403.533 749.242 405.16 749.242 407C749.242 409.427 748.748 411.507 747.762 413.24C746.802 414.947 745.535 416.267 743.962 417.2C742.415 418.107 740.735 418.56 738.922 418.56ZM738.922 414.72C740.068 414.72 741.055 414.4 741.882 413.76C742.735 413.12 743.388 412.227 743.842 411.08C744.295 409.907 744.522 408.547 744.522 407C744.522 405.453 744.295 404.107 743.842 402.96C743.388 401.787 742.735 400.88 741.882 400.24C741.055 399.573 740.068 399.24 738.922 399.24C737.748 399.24 736.735 399.573 735.882 400.24C735.055 400.88 734.415 401.787 733.962 402.96C733.508 404.107 733.282 405.453 733.282 407C733.282 408.547 733.508 409.907 733.962 411.08C734.415 412.227 735.055 413.12 735.882 413.76C736.735 414.4 737.748 414.72 738.922 414.72ZM761.171 418.56C758.824 418.56 757.104 417.8 756.011 416.28C754.918 414.76 754.371 412.613 754.371 409.84V395.96H759.011V409.28C759.011 411.147 759.304 412.493 759.891 413.32C760.478 414.147 761.411 414.56 762.691 414.56C763.704 414.56 764.611 414.307 765.411 413.8C766.211 413.267 767.064 412.427 767.971 411.28V395.96H772.611V418H768.811L768.451 414.68H768.331C767.318 415.827 766.251 416.76 765.131 417.48C764.011 418.2 762.691 418.56 761.171 418.56ZM779.496 418V395.96H783.256L783.656 399.92H783.736C784.536 398.507 785.482 397.413 786.576 396.64C787.669 395.84 788.816 395.44 790.016 395.44C790.549 395.44 791.002 395.48 791.376 395.56C791.749 395.64 792.109 395.747 792.456 395.88L791.656 399.92C791.256 399.787 790.896 399.693 790.576 399.64C790.256 399.587 789.869 399.56 789.416 399.56C788.536 399.56 787.602 399.92 786.616 400.64C785.629 401.333 784.789 402.56 784.096 404.32V418H779.496ZM808.367 418L802.447 395.96H807.087L810.007 407.88C810.221 408.947 810.421 410 810.607 411.04C810.794 412.053 810.994 413.093 811.207 414.16H811.407C811.621 413.093 811.834 412.053 812.047 411.04C812.287 410 812.541 408.947 812.807 407.88L815.927 395.96H820.167L823.327 407.88C823.594 408.947 823.847 410 824.087 411.04C824.327 412.053 824.567 413.093 824.807 414.16H825.007C825.221 413.093 825.421 412.053 825.607 411.04C825.821 410 826.034 408.947 826.247 407.88L829.087 395.96H833.447L827.727 418H822.207L819.407 407.12C819.141 406.08 818.901 405.04 818.687 404C818.474 402.96 818.247 401.88 818.007 400.76H817.807C817.567 401.88 817.341 402.973 817.127 404.04C816.941 405.08 816.714 406.12 816.447 407.16L813.727 418H808.367ZM846.461 418.56C844.647 418.56 842.941 418.107 841.341 417.2C839.767 416.267 838.487 414.947 837.501 413.24C836.541 411.507 836.061 409.427 836.061 407C836.061 404.547 836.541 402.467 837.501 400.76C838.487 399.027 839.767 397.707 841.341 396.8C842.941 395.893 844.647 395.44 846.461 395.44C847.794 395.44 849.087 395.707 850.341 396.24C851.594 396.747 852.701 397.493 853.661 398.48C854.621 399.467 855.381 400.68 855.941 402.12C856.501 403.533 856.781 405.16 856.781 407C856.781 409.427 856.287 411.507 855.301 413.24C854.341 414.947 853.074 416.267 851.501 417.2C849.954 418.107 848.274 418.56 846.461 418.56ZM846.461 414.72C847.607 414.72 848.594 414.4 849.421 413.76C850.274 413.12 850.927 412.227 851.381 411.08C851.834 409.907 852.061 408.547 852.061 407C852.061 405.453 851.834 404.107 851.381 402.96C850.927 401.787 850.274 400.88 849.421 400.24C848.594 399.573 847.607 399.24 846.461 399.24C845.287 399.24 844.274 399.573 843.421 400.24C842.594 400.88 841.954 401.787 841.501 402.96C841.047 404.107 840.821 405.453 840.821 407C840.821 408.547 841.047 409.907 841.501 411.08C841.954 412.227 842.594 413.12 843.421 413.76C844.274 414.4 845.287 414.72 846.461 414.72ZM862.23 418V395.96H865.99L866.39 399.92H866.47C867.27 398.507 868.217 397.413 869.31 396.64C870.403 395.84 871.55 395.44 872.75 395.44C873.283 395.44 873.737 395.48 874.11 395.56C874.483 395.64 874.843 395.747 875.19 395.88L874.39 399.92C873.99 399.787 873.63 399.693 873.31 399.64C872.99 399.587 872.603 399.56 872.15 399.56C871.27 399.56 870.337 399.92 869.35 400.64C868.363 401.333 867.523 402.56 866.83 404.32V418H862.23ZM878.597 418V386.12H883.117V406.64H883.277L891.797 395.96H896.917L889.477 404.96L897.757 418H892.757L886.797 408.04L883.117 412.28V418H878.597Z" fill="#4D4D4D"/>
</svg>
